<?xml version="1.0" encoding="utf-8"?>
<!-- Generator: Adobe Illustrator 28.3.0, SVG Export Plug-In . SVG Version: 6.00 Build 0)  -->
<svg version="1.1" id="Layer_1" xmlns="http://www.w3.org/2000/svg" xmlns:xlink="http://www.w3.org/1999/xlink" x="0px" y="0px"
	 viewBox="0 0 541.6 63.9" style="enable-background:new 0 0 541.6 63.9;" xml:space="preserve">
<style type="text/css">
	.st0{fill:#FFFFFF;}
</style>
<g>
	<path class="st0" d="M41.2,62.3c-5.2,0-7-2.6-10.8-8.2l-5.9-9c-5.1-7.8-6.1-9.3-10.5-9.3c-0.8,0-1.4,0.1-1.4,0.1
		c0,20.2,0.3,21.7,2,24.9l0.7,1.3c0,0-1.7-0.2-5.9-0.2c-4.3,0-6.1,0.2-6.1,0.2l0.7-1.3c1.6-2.9,2-3.6,2-27.3c0-23-0.3-23.3-2-26.5
		L3.2,5.6c0,0,2.1,0.2,5.2,0.2c2.3,0,5.8-0.2,8.6-0.2c8.6,0,20.5,0.7,20.5,14.2c0,5.5-2.5,15.1-17.6,14.9c6.9,0.9,9.3,4.7,13.6,11.5
		l3.6,5.9c2.9,4.7,5.1,8.3,8.5,9.7C45.6,61.8,44.5,62.3,41.2,62.3z M16.7,9.9c-2.1,0-4.1,0.2-4.1,0.2v21.4c0,0,1.7,0.2,4.8,0.2
		c0.9,0,3.5-0.2,4.8-0.3c4.3-0.6,7.9-4.1,7.9-10.8C30.1,10.8,24.1,9.9,16.7,9.9z"/>
	<path class="st0" d="M70.9,63C55,63,46.1,51.6,46.1,35.3C46.1,30,46.3,5.1,71,5.1c15.9,0,24.8,11.3,24.8,27.7
		C95.9,38,95.7,63,70.9,63z M70.9,9.8c-8.6,0-17.3,5.8-17.3,24.5c0,18.3,8.5,23.9,17.4,23.9c8.6,0,17.3-5.8,17.3-24.5
		C88.3,15.3,79.9,9.8,70.9,9.8z"/>
	<path class="st0" d="M144.4,61.9c-4.3,0-6.1,0.2-6.1,0.2l0.7-1.3c1.5-2.9,2-3.7,2-25.2h-27.4c0,21.6,0.3,22.1,2,25.2l0.7,1.3
		c0,0-1.7-0.2-6-0.2c-4.3,0-6.1,0.2-6.1,0.2l0.7-1.3c1.6-3,2-3.6,2-27.3c0-23-0.3-23.3-2-26.5l-0.7-1.3c0,0,1.7,0.2,6,0.2
		c4.3,0,6.1-0.2,6.1-0.2L115.5,7c-1.5,2.8-2,3.6-2,23.3H141c0-19.5-0.4-20.3-2-23.3l-0.7-1.3c0,0,1.7,0.2,6,0.2s6.1-0.2,6.1-0.2
		L149.7,7c-1.6,3-2,3.6-2,27.3c0,23,0.3,23.3,2,26.5l0.7,1.3C150.4,62.1,148.6,61.9,144.4,61.9z"/>
	<path class="st0" d="M198.8,61.9c-4.1,0-7,0.2-7,0.2c1-0.7,2.5-2.1,2.5-5c0-2.8-1.5-7.8-3.2-13.6l-1.6-5.3h-17.9l-1.6,5.3
		c-1.7,5.9-3.2,10.8-3.2,13.6c0,2.9,1.5,4.3,2.5,5c0,0-2.5-0.2-6.6-0.2c-4.3,0-6.4,0.2-6.4,0.2c2.9-2.8,4.4-7.8,7.9-18.7l10.5-33
		c0.3-0.9,0.6-1.9,0.6-2.9s-0.4-1.5-0.6-1.7h13.4c0,0.1-0.5,0.6-0.5,1.7c0,1,0.2,2,0.6,2.9l9.8,33c3.2,11,4.7,15.9,7.6,18.7
		C205.8,62.1,203.2,61.9,198.8,61.9z M182.5,14.2c-0.9-2.9-1.7-5.9-1.7-5.9l-7.7,25.2h15.1L182.5,14.2z"/>
	<path class="st0" d="M257.5,7c-1.5,2.8-1.8,3.6-1.9,27.3l-0.1,27.9c0,0-1.7-0.2-4.3-0.2c-3.1,0-4.6,0.2-4.6,0.2l-24.4-45.6
		c-1.3-2.3-2.1-5.6-2.1-5.6v23.3c0,23,0.3,23.3,2,26.5l0.7,1.3c0,0-1.8-0.2-5.5-0.2c-3.6,0-5.2,0.2-5.2,0.2l0.7-1.3
		c1.5-2.8,2-3.6,2-27.3c0-23-0.3-23.3-2-26.5l-0.7-1.3c0,0,1.6,0.2,6.2,0.2c3.7,0,5.4-0.2,5.4-0.2L248,51.1c1.6,3,2.2,5.6,2.2,5.6
		V33.5c0-23-0.3-23.3-2-26.5l-0.7-1.3c0,0,1.8,0.2,5.5,0.2c3.6,0,5.2-0.2,5.2-0.2L257.5,7z"/>
	<path class="st0" d="M323.7,61.9c-4.1,0-7,0.2-7,0.2c1-0.7,2.5-2.1,2.5-5c0-2.8-1.5-7.8-3.2-13.6l-1.6-5.3h-17.9l-1.6,5.3
		c-1.7,5.9-3.2,10.8-3.2,13.6c0,2.9,1.5,4.3,2.5,5c0,0-2.5-0.2-6.6-0.2c-4.3,0-6.4,0.2-6.4,0.2c2.9-2.8,4.4-7.8,7.9-18.7l10.5-33
		c0.3-0.9,0.6-1.9,0.6-2.9s-0.4-1.5-0.6-1.7h13.4c0,0.1-0.5,0.6-0.5,1.7c0,1,0.2,2,0.6,2.9l9.8,33c3.2,11,4.7,15.9,7.6,18.7
		C330.7,62.1,328.1,61.9,323.7,61.9z M307.5,14.2c-0.9-2.9-1.7-5.9-1.7-5.9L298,33.5h15.1L307.5,14.2z"/>
	<path class="st0" d="M359,21.7l-8.1,14.6c0,20.2,0.3,21.4,2,24.5l0.7,1.3c0,0-1.7-0.2-6-0.2c-4.3,0-6.1,0.2-6.1,0.2l0.7-1.3
		c1.5-2.8,2-4.4,2-22.5l-9-16.7c-7-13.1-7.7-13.8-10.4-15.9c0,0,1.9,0.2,7.7,0.2c5.9,0,7.3-0.2,7.3-0.2c-1.3,1.1-1.8,2.5-1.8,3.7
		c0,2.2,0.4,3.2,4.3,10.7l6.1,11.6l6-11.7c3.9-7.5,4-8.4,4-10.6c0-1.3-0.6-2.6-1.8-3.7c0,0,2.6,0.2,6.5,0.2c5.1,0,6.8-0.2,6.8-0.2
		C367,7.4,366.2,8.8,359,21.7z"/>
	<path class="st0" d="M381.3,61.9c-4.3,0-6.1,0.2-6.1,0.2l0.7-1.3c1.6-3,2-3.6,2-27.3c0-23-0.3-23.3-2-26.5l-0.7-1.3
		c0,0,1.7,0.2,6,0.2c4.3,0,6.1-0.2,6.1-0.2L386.6,7c-1.6,3-2,3.6-2,27.3c0,23,0.3,23.3,2,26.5l0.7,1.3
		C387.3,62.1,385.6,61.9,381.3,61.9z"/>
	<path class="st0" d="M442.1,7c-1.5,2.8-1.8,3.6-1.9,27.3l-0.1,27.9c0,0-1.7-0.2-4.3-0.2c-3.1,0-4.6,0.2-4.6,0.2l-24.4-45.6
		c-1.3-2.3-2.1-5.6-2.1-5.6v23.3c0,23,0.3,23.3,2,26.5l0.7,1.3c0,0-1.8-0.2-5.5-0.2c-3.6,0-5.2,0.2-5.2,0.2l0.7-1.3
		c1.5-2.8,2-3.6,2-27.3c0-23-0.3-23.3-2-26.5l-0.7-1.3c0,0,1.6,0.2,6.2,0.2c3.7,0,5.4-0.2,5.4-0.2l24.3,45.5c1.6,3,2.2,5.6,2.2,5.6
		V33.5c0-23-0.3-23.3-2-26.5l-0.7-1.3c0,0,1.8,0.2,5.5,0.2c3.6,0,5.2-0.2,5.2-0.2L442.1,7z"/>
	<path class="st0" d="M467.4,62.2c-3.4,0-5.9-0.2-9.1-0.2c-4.3,0-6.3,0.2-6.3,0.2l0.7-1.3c1.6-2.9,2-3.6,2-27.3
		c0-23-0.3-23.3-2-26.5L452,5.6c0,0,2.1,0.2,6.3,0.2c3.2,0,7-0.2,10.4-0.2c7.2,0,29.3,0.6,29.3,27C498.1,61.6,476.9,62.2,467.4,62.2
		z M467.4,10c-3.2,0-5.8,0.2-5.8,0.2v47.3c0,0,2.9,0.2,5.5,0.2c10.2,0,23.6-1.2,23.6-24.1C490.7,11.9,478.3,10,467.4,10z"/>
	<path class="st0" d="M538.9,59.8l-0.2,2.2h-26.5c-4.3,0-6.1,0.1-6.1,0.1l0.7-1.3c1.6-3,2-3.6,2-27.3c0-23-0.3-23.3-2-26.5l-0.7-1.3
		c0,0,1.7,0.1,6,0.1h25.8c0,0-0.1,1.2-0.1,3.8c0,3,0.2,4.4,0.2,4.6c-0.1-0.1-0.6-0.8-2.8-2.1c-1.9-1.1-5-1.7-8.7-1.7h-10.9v21.4h9
		c3.7,0,6.8-0.4,8.7-1.5c2.1-1.2,2.7-1.9,2.8-2.1c0,0.1-0.2,2.4-0.2,5.9c0,3.4,0.2,5.6,0.2,5.8c-0.1-0.1-0.6-0.8-2.8-2.1
		c-1.9-1.1-5-1.5-8.7-1.5h-9v21.5h10.1c9.8,0,11.1-2.3,14-6.6C539.8,50.9,539.4,53.7,538.9,59.8z"/>
</g>
</svg>
