<?xml version="1.0" encoding="utf-8"?>
<!-- Generator: Adobe Illustrator 28.3.0, SVG Export Plug-In . SVG Version: 6.00 Build 0)  -->
<svg version="1.1" id="Layer_1" xmlns="http://www.w3.org/2000/svg" xmlns:xlink="http://www.w3.org/1999/xlink" x="0px" y="0px"
	 viewBox="0 0 656.5 63.9" style="enable-background:new 0 0 656.5 63.9;" xml:space="preserve">
<style type="text/css">
	.st0{fill:#FFFFFF;}
</style>
<g>
	<path class="st0" d="M29.6,61.9C3.1,61.9,1.8,41.8,1.8,33.8c0-18.5,10.4-29.3,28.4-29.3C40.1,4.5,44,6.8,44,6.8s-0.2,1.8-0.2,4.8
		c0,3.1,0.2,5.3,0.2,5.3c-3.4-4.9-6.2-7.8-13.9-7.8c-7.6,0-20.9,2.3-20.9,24.4c0,12.6,3.9,23.7,20.6,23.7c8,0,10.8-3,14.2-7.9
		c0,0-0.2,2.6-0.2,5.7c0,2.8,0.2,4.6,0.2,4.6S38.6,61.9,29.6,61.9z"/>
	<path class="st0" d="M90.7,61.3c-4.1,0-7,0.2-7,0.2c1-0.7,2.5-2.1,2.5-5c0-2.8-1.5-7.8-3.2-13.6l-1.6-5.3H63.6L62,42.8
		c-1.7,5.9-3.2,10.8-3.2,13.6c0,2.9,1.5,4.3,2.5,5c0,0-2.5-0.2-6.6-0.2c-4.3,0-6.4,0.2-6.4,0.2c2.9-2.8,4.4-7.8,7.9-18.7l10.5-33
		c0.3-0.9,0.6-1.9,0.6-2.9S67,5.3,66.9,5.1h13.4c0,0.1-0.5,0.6-0.5,1.7c0,1,0.2,2,0.6,2.9l9.8,33c3.2,11,4.7,15.9,7.6,18.7
		C97.7,61.4,95.1,61.3,90.7,61.3z M74.5,13.5c-0.9-2.9-1.7-5.9-1.7-5.9L65,32.8h15.1L74.5,13.5z"/>
	<path class="st0" d="M150.4,61.3c-4.3,0-6.1,0.2-6.1,0.2l0.8-1.3c1.7-2.8,2-3.6,2-27.3V7.6c0,0-0.7,3.2-1.5,5.1l-16.1,38.6
		L113.7,13c-0.8-1.8-1.7-5.2-1.7-5.2L112,33.6c-0.1,23,0.4,23.3,2.1,26.5l0.7,1.3c0,0-1.9-0.2-5.5-0.2c-3.6,0-5.1,0.2-5.1,0.2
		l0.7-1.3c1.5-2.9,1.9-3.6,1.9-27.3c0-23-0.2-23.3-1.9-26.5L104.1,5c0,0,3.2,0.2,7,0.2c3.6,0,6.2-0.2,6.2-0.2l12.2,29.7
		c0.6,1.5,0.9,2.5,0.9,2.5s0.2-0.7,0.9-2.5L143.6,5c0,0,2.7,0.2,6.2,0.2c3.6,0,6.5-0.2,6.5-0.2l-0.7,1.3c-1.6,2.9-2,3.6-2,27.3
		c0,23,0.3,23.3,2,26.5l0.7,1.3C156.3,61.4,154.6,61.3,150.4,61.3z"/>
	<path class="st0" d="M172.1,61.3c-4.3,0-6.1,0.2-6.1,0.2l0.7-1.3c1.6-3,2-3.6,2-27.3c0-23-0.3-23.3-2-26.5L166,5c0,0,1.7,0.2,6,0.2
		c4.3,0,6.1-0.2,6.1-0.2l-0.7,1.3c-1.6,3-2,3.6-2,27.3c0,23,0.3,23.3,2,26.5l0.7,1.3C178.1,61.4,176.4,61.3,172.1,61.3z"/>
	<path class="st0" d="M216.6,59.1l-0.2,2.2h-22.7c-4.3,0-6.1,0.1-6.1,0.1l0.7-1.3c1.6-3,2-3.6,2-27.3c0-23-0.3-23.3-2-26.5L187.6,5
		c0,0,1.7,0.2,6,0.2c4.3,0,6.2-0.2,6.2-0.2l-0.7,1.3c-1.6,3-2,3.6-2,27.3v23.3h6.3c9.8,0,11.1-2.3,14-6.6
		C217.4,50.3,217,53,216.6,59.1z"/>
	<path class="st0" d="M253.1,59.1l-0.2,2.2h-22.7c-4.3,0-6.1,0.1-6.1,0.1l0.7-1.3c1.6-3,2-3.6,2-27.3c0-23-0.3-23.3-2-26.5L224.1,5
		c0,0,1.7,0.2,6,0.2c4.3,0,6.2-0.2,6.2-0.2l-0.7,1.3c-1.6,3-2,3.6-2,27.3v23.3h6.3c9.8,0,11.1-2.3,14-6.6
		C254,50.3,253.6,53,253.1,59.1z"/>
	<path class="st0" d="M293.4,59.1l-0.2,2.2h-26.5c-4.3,0-6.1,0.1-6.1,0.1l0.7-1.3c1.6-3,2-3.6,2-27.3c0-23-0.3-23.3-2-26.5L260.7,5
		c0,0,1.7,0.1,6,0.1h25.8c0,0-0.1,1.2-0.1,3.8c0,3,0.2,4.4,0.2,4.6c-0.1-0.1-0.6-0.8-2.8-2.1c-1.9-1.1-5-1.7-8.7-1.7h-10.9v21.4h9
		c3.7,0,6.8-0.4,8.7-1.5c2.1-1.2,2.7-1.9,2.8-2.1c0,0.1-0.2,2.4-0.2,5.9c0,3.4,0.2,5.6,0.2,5.8c-0.1-0.1-0.6-0.8-2.8-2.1
		c-1.9-1.1-5-1.5-8.7-1.5h-9v21.5h10.1c9.8,0,11.1-2.3,14-6.6C294.3,50.3,293.9,53,293.4,59.1z"/>
	<path class="st0" d="M367.1,36.5c-1.5,2.8-2,4-2,22.6v0.5c0,0-5.2,2.3-14.3,2.3c-27.4,0-28.9-20.1-28.9-28.1
		c0-18.5,10.8-29.3,29.3-29.3c10.2,0,14.3,2.3,14.3,2.3s-0.2,1.8-0.2,4.8c0,3.1,0.2,5.3,0.2,5.3c-3.5-4.9-6.6-7.8-14.6-7.8
		c-7.8,0-21.7,2.3-21.7,24.4c0,13,4.2,23.7,21.4,23.7c5.1,0,7.7-0.6,7.7-0.6c0-14.7-0.4-17.3-2-20.1l-0.8-1.3c0,0,1.7,0.2,6,0.2
		s6.1-0.2,6.1-0.2L367.1,36.5z"/>
	<path class="st0" d="M381.1,62.3c-3.4-0.6-5.3-2.6-5.3-5.4c0-2.8,2.2-5,5.2-5.5c3.4,0.6,5.3,2.6,5.3,5.4
		C386.3,59.7,384.1,61.8,381.1,62.3z"/>
	<path class="st0" d="M442.8,59.8c-3.6,1.5-6.8,1.6-13.7,1.6c-2.7,0-5.3-0.2-8-0.2c-4.3,0-6.1,0.2-6.1,0.2l0.7-1.3
		c1.6-2.9,2-3.6,2-27.3c0-23-0.3-23.3-2-26.5L415,5c0,0,2.1,0.2,5.2,0.2c2.3,0,5.5-0.2,7.8-0.2c11.3,0,21.4,1.2,21.4,13.7
		c0,8.2-5.2,12.5-11.7,13.8c5.4,0,13.7,2.9,13.7,13.6C451.4,54,446.9,58.1,442.8,59.8z M428.8,9.2c-2.1,0-4.5,0.2-4.5,0.2v21.1
		c0,0,1.8,0.2,4.9,0.2c0.9,0,3.2-0.2,4.6-0.3c4.3-0.6,8.1-4.2,8.1-11.1C442,10.1,435.3,9.2,428.8,9.2z M429.4,35
		c-2.5,0-5.1,0.2-5.1,0.2V57c0,0,1.2,0.2,5.5,0.2c4.2,0,7.1-0.5,8.5-1.2c1.9-0.9,5.6-2.8,5.6-10.3C443.9,36.5,437.4,35,429.4,35z"/>
	<path class="st0" d="M495.9,61.3c-4.1,0-7,0.2-7,0.2c1-0.7,2.5-2.1,2.5-5c0-2.8-1.5-7.8-3.2-13.6l-1.6-5.3h-17.9l-1.6,5.3
		c-1.7,5.9-3.2,10.8-3.2,13.6c0,2.9,1.5,4.3,2.5,5c0,0-2.5-0.2-6.6-0.2c-4.3,0-6.4,0.2-6.4,0.2c2.9-2.8,4.4-7.8,7.9-18.7l10.5-33
		c0.3-0.9,0.6-1.9,0.6-2.9s-0.4-1.5-0.6-1.7h13.4c0,0.1-0.5,0.6-0.5,1.7c0,1,0.2,2,0.6,2.9l9.8,33c3.2,11,4.7,15.9,7.6,18.7
		C502.9,61.4,500.3,61.3,495.9,61.3z M479.6,13.5c-0.9-2.9-1.7-5.9-1.7-5.9l-7.7,25.2h15.1L479.6,13.5z"/>
	<path class="st0" d="M532,61.9c-26.5,0-27.8-20.1-27.8-28.1c0-18.5,10.4-29.3,28.4-29.3c9.9,0,13.8,2.3,13.8,2.3s-0.2,1.8-0.2,4.8
		c0,3.1,0.2,5.3,0.2,5.3c-3.4-4.9-6.2-7.8-13.9-7.8c-7.6,0-20.9,2.3-20.9,24.4c0,12.6,3.9,23.7,20.6,23.7c8,0,10.8-3,14.2-7.9
		c0,0-0.2,2.6-0.2,5.7c0,2.8,0.2,4.6,0.2,4.6S540.9,61.9,532,61.9z"/>
	<path class="st0" d="M577.1,62.3c-15.9,0-24.8-11.3-24.8-27.7c0-5.3,0.2-30.2,24.9-30.2c15.9,0,24.8,11.3,24.8,27.7
		C602,37.4,601.9,62.3,577.1,62.3z M577.1,9.1c-8.6,0-17.3,5.8-17.3,24.5c0,18.3,8.5,23.9,17.4,23.9c8.6,0,17.3-5.8,17.3-24.5
		C594.5,14.7,586,9.1,577.1,9.1z"/>
	<path class="st0" d="M655.6,6.3c-1.5,2.8-1.8,3.6-1.9,27.3l-0.1,27.9c0,0-1.7-0.2-4.3-0.2c-3.1,0-4.6,0.2-4.6,0.2l-24.4-45.6
		c-1.3-2.3-2.1-5.6-2.1-5.6v23.3c0,23,0.3,23.3,2,26.5l0.7,1.3c0,0-1.8-0.2-5.5-0.2c-3.6,0-5.2,0.2-5.2,0.2l0.7-1.3
		c1.5-2.8,2-3.6,2-27.3c0-23-0.3-23.3-2-26.5L610.3,5c0,0,1.6,0.2,6.2,0.2c3.7,0,5.4-0.2,5.4-0.2l24.3,45.5c1.6,3,2.2,5.6,2.2,5.6
		V32.8c0-23-0.3-23.3-2-26.5L645.6,5c0,0,1.8,0.2,5.5,0.2c3.6,0,5.2-0.2,5.2-0.2L655.6,6.3z"/>
</g>
</svg>
