<?xml version="1.0" encoding="utf-8"?>
<!-- Generator: Adobe Illustrator 28.3.0, SVG Export Plug-In . SVG Version: 6.00 Build 0)  -->
<svg version="1.1" id="Layer_1" xmlns="http://www.w3.org/2000/svg" xmlns:xlink="http://www.w3.org/1999/xlink" x="0px" y="0px"
	 viewBox="0 0 1631.6 173.7" style="enable-background:new 0 0 1631.6 173.7;" xml:space="preserve">
<style type="text/css">
	.st0{fill:#FFFFFF;}
</style>
<g>
	<path class="st0" d="M34.8,74.2l-0.2,2.2H11.9c-4.3,0-6.1,0.1-6.1,0.1l0.7-1.3c1.6-3,2-3.6,2-27.3c0-23-0.3-23.3-2-26.5L5.8,20
		c0,0,1.7,0.2,6,0.2c4.3,0,6.2-0.2,6.2-0.2l-0.7,1.3c-1.6,3-2,3.6-2,27.3v23.3h6.3c9.8,0,11.1-2.3,14-6.6
		C35.6,65.3,35.3,68.1,34.8,74.2z"/>
	<path class="st0" d="M75.1,74.2l-0.2,2.2H48.5c-4.3,0-6.1,0.1-6.1,0.1l0.7-1.3c1.6-3,2-3.6,2-27.3c0-23-0.3-23.3-2-26.5L42.4,20
		c0,0,1.7,0.1,6,0.1h25.8c0,0-0.1,1.2-0.1,3.8c0,3,0.2,4.4,0.2,4.6c-0.1-0.1-0.6-0.8-2.8-2.1c-1.9-1.1-5-1.7-8.7-1.7H51.9v21.4h9
		c3.7,0,6.8-0.4,8.7-1.5c2.1-1.2,2.7-1.9,2.8-2.1c0,0.1-0.2,2.4-0.2,5.9c0,3.4,0.2,5.6,0.2,5.8c-0.1-0.1-0.6-0.8-2.8-2.1
		c-1.9-1.1-5-1.5-8.7-1.5h-9v21.5H62c9.8,0,11.1-2.3,14-6.6C76,65.3,75.6,68.1,75.1,74.2z"/>
	<path class="st0" d="M127.4,51.6c-1.5,2.8-2,4-2,22.6v0.5c0,0-5.2,2.3-14.3,2.3c-27.4,0-28.9-20.1-28.9-28.1
		c0-18.5,10.8-29.3,29.3-29.3c10.2,0,14.3,2.3,14.3,2.3s-0.2,1.8-0.2,4.8c0,3.1,0.2,5.3,0.2,5.3c-3.5-4.9-6.6-7.8-14.6-7.8
		c-7.8,0-21.7,2.3-21.7,24.4c0,13,4.2,23.7,21.4,23.7c5.1,0,7.7-0.6,7.7-0.6c0-14.7-0.4-17.3-2-20.1l-0.8-1.3c0,0,1.7,0.2,6,0.2
		s6.1-0.2,6.1-0.2L127.4,51.6z"/>
	<path class="st0" d="M174.1,76.3c-4.1,0-7,0.2-7,0.2c1-0.7,2.5-2.1,2.5-5c0-2.8-1.5-7.8-3.2-13.6l-1.6-5.3h-17.9l-1.6,5.3
		c-1.7,5.9-3.2,10.8-3.2,13.6c0,2.9,1.5,4.3,2.5,5c0,0-2.5-0.2-6.6-0.2c-4.3,0-6.4,0.2-6.4,0.2c2.9-2.8,4.4-7.8,7.9-18.7l10.5-33
		c0.3-0.9,0.6-1.9,0.6-2.9s-0.4-1.5-0.6-1.7h13.4c0,0.1-0.5,0.6-0.5,1.7c0,1,0.2,2,0.6,2.9l9.8,33c3.2,11,4.7,15.9,7.6,18.7
		C181,76.5,178.4,76.3,174.1,76.3z M157.8,28.5c-0.9-2.9-1.7-5.9-1.7-5.9l-7.7,25.2h15.1L157.8,28.5z"/>
	<path class="st0" d="M210.1,76.9c-26.5,0-27.8-20.1-27.8-28.1c0-18.5,10.4-29.3,28.4-29.3c9.9,0,13.8,2.3,13.8,2.3
		s-0.2,1.8-0.2,4.8c0,3.1,0.2,5.3,0.2,5.3c-3.4-4.9-6.2-7.8-13.9-7.8c-7.6,0-20.9,2.3-20.9,24.4c0,12.6,3.9,23.7,20.6,23.7
		c8,0,10.8-3,14.2-7.9c0,0-0.2,2.6-0.2,5.7c0,2.8,0.2,4.6,0.2,4.6S219.1,76.9,210.1,76.9z"/>
	<path class="st0" d="M263,36.1l-8.1,14.6c0,20.2,0.3,21.4,2,24.5l0.7,1.3c0,0-1.7-0.2-6-0.2c-4.3,0-6.1,0.2-6.1,0.2l0.7-1.3
		c1.5-2.8,2-4.4,2-22.5l-9-16.7c-7-13.1-7.7-13.8-10.4-15.9c0,0,1.9,0.2,7.7,0.2c5.9,0,7.3-0.2,7.3-0.2c-1.3,1.1-1.8,2.5-1.8,3.7
		c0,2.2,0.4,3.2,4.3,10.7l6.1,11.6l6-11.7c3.9-7.5,4-8.4,4-10.6c0-1.3-0.6-2.6-1.8-3.7c0,0,2.6,0.2,6.5,0.2c5.1,0,6.8-0.2,6.8-0.2
		C271.1,21.8,270.2,23.2,263,36.1z"/>
	<path class="st0" d="M334.6,76.7c-5.2,0-7-2.6-10.8-8.2l-5.9-9c-5.1-7.8-6.1-9.3-10.5-9.3c-0.8,0-1.4,0.1-1.4,0.1
		c0,20.2,0.3,21.7,2,24.9l0.7,1.3c0,0-1.7-0.2-5.9-0.2c-4.3,0-6.1,0.2-6.1,0.2l0.7-1.3c1.6-2.9,2-3.6,2-27.3c0-23-0.3-23.3-2-26.5
		l-0.7-1.3c0,0,2.1,0.2,5.2,0.2c2.3,0,5.8-0.2,8.6-0.2c8.6,0,20.5,0.7,20.5,14.2c0,5.5-2.5,15.1-17.6,14.9
		c6.9,0.9,9.3,4.7,13.6,11.5l3.6,5.9c2.9,4.7,5.1,8.3,8.5,9.7C339,76.2,337.9,76.7,334.6,76.7z M310.1,24.3c-2.1,0-4.1,0.2-4.1,0.2
		v21.4c0,0,1.7,0.2,4.8,0.2c0.9,0,3.5-0.2,4.8-0.3c4.3-0.6,7.9-4.1,7.9-10.8C323.5,25.2,317.5,24.3,310.1,24.3z"/>
	<path class="st0" d="M385.4,21.4c-1.5,2.8-2,3.6-2,23.3v4.7c0,10.3-0.2,14.9-2.3,18.9c-2.8,5.2-7.8,8.9-18.1,8.9
		c-7.8,0-13.8-1.9-17.3-7.1c-2.5-3.6-3.2-7.2-3.2-17.2v-6.1c0-21.2-0.3-22.2-2-25.4l-0.7-1.3c0,0,1.8,0.2,6.1,0.2s6.1-0.2,6.1-0.2
		l-0.7,1.3c-1.5,2.8-2,3.6-2,23.3v11c0,2.5,0.2,5.7,0.7,7.5c1.6,6.2,6,9.3,13.4,9.3c7.2,0,11.9-3,13.5-9.6c0.4-1.7,0.6-4.3,0.6-6.6
		v-8.4c0-23-0.3-23.3-2-26.5l-0.7-1.3c0,0,1.3,0.2,5.5,0.2s5.7-0.2,5.7-0.2L385.4,21.4z"/>
	<path class="st0" d="M406.9,76.9c-9,0-13.4-2.5-13.4-2.5s0.2-1.8,0.2-4.6c0-3.1-0.2-5.7-0.2-5.7c3.4,4.9,6.6,8.1,13.5,8.1
		c4.7,0,11.9-0.6,11.9-8.8c0-5.1-2.7-7.4-6.1-9.7l-7.2-4.8c-5.2-3.5-11.7-7-11.7-15.9c0-6.8,4.4-13.5,17.3-13.5
		c7.8,0,12.3,2.3,12.3,2.3s-0.2,1.8-0.2,4.8c0,3.1,0.2,5.3,0.2,5.3c-3.4-4.9-6.5-7.8-12.7-7.8c-2.7,0-10.4,0.2-10.4,8.1
		c0,4.9,3.3,7,7.8,10l5.6,3.8c6,4,11.7,7,11.7,16.4C425.5,73.1,418,76.9,406.9,76.9z"/>
	<path class="st0" d="M446.5,76.9c-9,0-13.4-2.5-13.4-2.5s0.2-1.8,0.2-4.6c0-3.1-0.2-5.7-0.2-5.7c3.4,4.9,6.6,8.1,13.5,8.1
		c4.7,0,11.9-0.6,11.9-8.8c0-5.1-2.7-7.4-6.1-9.7l-7.2-4.8c-5.2-3.5-11.7-7-11.7-15.9c0-6.8,4.4-13.5,17.3-13.5
		c7.8,0,12.3,2.3,12.3,2.3s-0.2,1.8-0.2,4.8c0,3.1,0.2,5.3,0.2,5.3c-3.4-4.9-6.5-7.8-12.7-7.8c-2.7,0-10.4,0.2-10.4,8.1
		c0,4.9,3.3,7,7.8,10l5.6,3.8c6,4,11.7,7,11.7,16.4C465.1,73.1,457.5,76.9,446.5,76.9z"/>
	<path class="st0" d="M505.8,74.2l-0.2,2.2h-26.5c-4.3,0-6.1,0.1-6.1,0.1l0.7-1.3c1.6-3,2-3.6,2-27.3c0-23-0.3-23.3-2-26.5l-0.7-1.3
		c0,0,1.7,0.1,6,0.1h25.8c0,0-0.1,1.2-0.1,3.8c0,3,0.2,4.4,0.2,4.6c-0.1-0.1-0.6-0.8-2.8-2.1c-1.9-1.1-5-1.7-8.7-1.7h-10.9v21.4h9
		c3.7,0,6.8-0.4,8.7-1.5c2.1-1.2,2.7-1.9,2.8-2.1c0,0.1-0.2,2.4-0.2,5.9c0,3.4,0.2,5.6,0.2,5.8c-0.1-0.1-0.6-0.8-2.8-2.1
		c-1.9-1.1-5-1.5-8.7-1.5h-9v21.5h10.1c9.8,0,11.1-2.3,14-6.6C506.7,65.3,506.3,68.1,505.8,74.2z"/>
	<path class="st0" d="M543.6,74.2l-0.2,2.2h-22.7c-4.3,0-6.1,0.1-6.1,0.1l0.7-1.3c1.6-3,2-3.6,2-27.3c0-23-0.3-23.3-2-26.5l-0.7-1.3
		c0,0,1.7,0.2,6,0.2c4.3,0,6.2-0.2,6.2-0.2l-0.7,1.3c-1.6,3-2,3.6-2,27.3v23.3h6.3c9.8,0,11.1-2.3,14-6.6
		C544.5,65.3,544.1,68.1,543.6,74.2z"/>
	<path class="st0" d="M580.1,74.2l-0.2,2.2h-22.7c-4.3,0-6.1,0.1-6.1,0.1l0.7-1.3c1.6-3,2-3.6,2-27.3c0-23-0.3-23.3-2-26.5l-0.7-1.3
		c0,0,1.7,0.2,6,0.2c4.3,0,6.2-0.2,6.2-0.2l-0.7,1.3c-1.6,3-2,3.6-2,27.3v23.3h6.3c9.8,0,11.1-2.3,14-6.6
		C581,65.3,580.6,68.1,580.1,74.2z"/>
	<path class="st0" d="M642.9,76.3c-4.1,0-7,0.2-7,0.2c1-0.7,2.5-2.1,2.5-5c0-2.8-1.5-7.8-3.2-13.6l-1.6-5.3h-17.9l-1.6,5.3
		c-1.7,5.9-3.2,10.8-3.2,13.6c0,2.9,1.5,4.3,2.5,5c0,0-2.5-0.2-6.6-0.2c-4.3,0-6.4,0.2-6.4,0.2c2.9-2.8,4.4-7.8,7.9-18.7l10.5-33
		c0.3-0.9,0.6-1.9,0.6-2.9s-0.4-1.5-0.6-1.7h13.4c0,0.1-0.5,0.6-0.5,1.7c0,1,0.2,2,0.6,2.9l9.8,33c3.2,11,4.7,15.9,7.6,18.7
		C649.9,76.5,647.3,76.3,642.9,76.3z M626.6,28.5c-0.9-2.9-1.7-5.9-1.7-5.9l-7.7,25.2h15.1L626.6,28.5z"/>
	<path class="st0" d="M701.6,21.4c-1.5,2.8-1.8,3.6-1.9,27.3l-0.1,27.9c0,0-1.7-0.2-4.3-0.2c-3.1,0-4.6,0.2-4.6,0.2L666.4,31
		c-1.3-2.3-2.1-5.6-2.1-5.6v23.3c0,23,0.3,23.3,2,26.5l0.7,1.3c0,0-1.8-0.2-5.5-0.2c-3.6,0-5.2,0.2-5.2,0.2l0.7-1.3
		c1.5-2.8,2-3.6,2-27.3c0-23-0.3-23.3-2-26.5l-0.7-1.3c0,0,1.6,0.2,6.2,0.2c3.7,0,5.4-0.2,5.4-0.2l24.3,45.5c1.6,3,2.2,5.6,2.2,5.6
		V47.8c0-23-0.3-23.3-2-26.5l-0.7-1.3c0,0,1.8,0.2,5.5,0.2c3.6,0,5.2-0.2,5.2-0.2L701.6,21.4z"/>
	<path class="st0" d="M726.9,76.6c-3.4,0-5.9-0.2-9.1-0.2c-4.3,0-6.3,0.2-6.3,0.2l0.7-1.3c1.6-2.9,2-3.6,2-27.3
		c0-23-0.3-23.3-2-26.5l-0.7-1.3c0,0,2.1,0.2,6.3,0.2c3.2,0,7-0.2,10.4-0.2c7.2,0,29.3,0.6,29.3,27C757.6,76,736.4,76.6,726.9,76.6z
		 M726.8,24.4c-3.2,0-5.8,0.2-5.8,0.2v47.3c0,0,2.9,0.2,5.5,0.2c10.2,0,23.6-1.2,23.6-24.1C750.1,26.3,737.7,24.4,726.8,24.4z"/>
	<path class="st0" d="M799.1,21.4c-1.6,2.9-2,3.6-2,27.4v31.1c0,6.4-0.5,13.4-11.8,13.4h-1.3c6.1-3,6.3-8.2,6.3-19.2V47.9
		c0-23-0.3-23.4-2-26.6l-0.7-1.3c0,0,1.7,0.2,6,0.2c4.3,0,6.1-0.2,6.1-0.2L799.1,21.4z"/>
	<path class="st0" d="M841.6,74.2l-0.2,2.2H815c-4.3,0-6.1,0.1-6.1,0.1l0.7-1.3c1.6-3,2-3.6,2-27.3c0-23-0.3-23.3-2-26.5l-0.7-1.3
		c0,0,1.7,0.1,6,0.1h25.8c0,0-0.1,1.2-0.1,3.8c0,3,0.2,4.4,0.2,4.6c-0.1-0.1-0.6-0.8-2.8-2.1c-1.9-1.1-5-1.7-8.7-1.7h-10.9v21.4h9
		c3.7,0,6.8-0.4,8.7-1.5c2.1-1.2,2.7-1.9,2.8-2.1c0,0.1-0.2,2.4-0.2,5.9c0,3.4,0.2,5.6,0.2,5.8c-0.1-0.1-0.6-0.8-2.8-2.1
		c-1.9-1.1-5-1.5-8.7-1.5h-9v21.5h10.1c9.8,0,11.1-2.3,14-6.6C842.5,65.3,842.1,68.1,841.6,74.2z"/>
	<path class="st0" d="M863.7,76.9c-9,0-13.4-2.5-13.4-2.5s0.2-1.8,0.2-4.6c0-3.1-0.2-5.7-0.2-5.7c3.4,4.9,6.6,8.1,13.5,8.1
		c4.7,0,11.9-0.6,11.9-8.8c0-5.1-2.7-7.4-6.1-9.7l-7.2-4.8c-5.2-3.5-11.7-7-11.7-15.9c0-6.8,4.4-13.5,17.3-13.5
		c7.8,0,12.3,2.3,12.3,2.3s-0.2,1.8-0.2,4.8c0,3.1,0.2,5.3,0.2,5.3c-3.4-4.9-6.5-7.8-12.7-7.8c-2.7,0-10.4,0.2-10.4,8.1
		c0,4.9,3.3,7,7.8,10l5.6,3.8c6,4,11.7,7,11.7,16.4C882.3,73.1,874.8,76.9,863.7,76.9z"/>
	<path class="st0" d="M934.8,21.4c-1.5,2.8-2,3.6-2,23.3v4.7c0,10.3-0.2,14.9-2.3,18.9c-2.8,5.2-7.8,8.9-18.1,8.9
		c-7.8,0-13.8-1.9-17.3-7.1c-2.5-3.6-3.2-7.2-3.2-17.2v-6.1c0-21.2-0.3-22.2-2-25.4l-0.7-1.3c0,0,1.8,0.2,6.1,0.2s6.1-0.2,6.1-0.2
		l-0.7,1.3c-1.5,2.8-2,3.6-2,23.3v11c0,2.5,0.2,5.7,0.7,7.5c1.6,6.2,6,9.3,13.4,9.3c7.2,0,11.9-3,13.5-9.6c0.4-1.7,0.6-4.3,0.6-6.6
		v-8.4c0-23-0.3-23.3-2-26.5l-0.7-1.3c0,0,1.3,0.2,5.5,0.2s5.7-0.2,5.7-0.2L934.8,21.4z M916,5.4h7.7c0,0-1,2.9-6.2,7
		c-4.7,3.8-8.2,4.4-8.2,4.4L916,5.4z"/>
	<path class="st0" d="M956.3,76.9c-9,0-13.4-2.5-13.4-2.5s0.2-1.8,0.2-4.6c0-3.1-0.2-5.7-0.2-5.7c3.4,4.9,6.6,8.1,13.5,8.1
		c4.7,0,11.9-0.6,11.9-8.8c0-5.1-2.7-7.4-6.1-9.7L955,49c-5.2-3.5-11.7-7-11.7-15.9c0-6.8,4.4-13.5,17.3-13.5
		c7.8,0,12.3,2.3,12.3,2.3s-0.2,1.8-0.2,4.8c0,3.1,0.2,5.3,0.2,5.3c-3.4-4.9-6.5-7.8-12.7-7.8c-2.7,0-10.4,0.2-10.4,8.1
		c0,4.9,3.3,7,7.8,10l5.6,3.8c6,4,11.7,7,11.7,16.4C974.9,73.1,967.4,76.9,956.3,76.9z"/>
	<path class="st0" d="M1043.9,76.3c-4.3,0-6.1,0.2-6.1,0.2l0.7-1.3c1.5-2.9,2-3.7,2-25.2h-27.4c0,21.6,0.3,22.1,2,25.2l0.7,1.3
		c0,0-1.7-0.2-6-0.2c-4.3,0-6.1,0.2-6.1,0.2l0.7-1.3c1.6-3,2-3.6,2-27.3c0-23-0.3-23.3-2-26.5l-0.7-1.3c0,0,1.7,0.2,6,0.2
		c4.3,0,6.1-0.2,6.1-0.2l-0.7,1.3c-1.5,2.8-2,3.6-2,23.3h27.4c0-19.5-0.4-20.3-2-23.3l-0.7-1.3c0,0,1.7,0.2,6,0.2s6.1-0.2,6.1-0.2
		l-0.7,1.3c-1.6,3-2,3.6-2,27.3c0,23,0.3,23.3,2,26.5l0.7,1.3C1049.9,76.5,1048.2,76.3,1043.9,76.3z"/>
	<path class="st0" d="M1065.7,76.3c-4.3,0-6.1,0.2-6.1,0.2l0.7-1.3c1.6-3,2-3.6,2-27.3c0-23-0.3-23.3-2-26.5l-0.7-1.3
		c0,0,1.7,0.2,6,0.2c4.3,0,6.1-0.2,6.1-0.2l-0.7,1.3c-1.6,3-2,3.6-2,27.3c0,23,0.3,23.3,2,26.5l0.7,1.3
		C1071.7,76.5,1069.9,76.3,1065.7,76.3z"/>
	<path class="st0" d="M1110.1,74.2l-0.2,2.2h-22.7c-4.3,0-6.1,0.1-6.1,0.1l0.7-1.3c1.6-3,2-3.6,2-27.3c0-23-0.3-23.3-2-26.5
		l-0.7-1.3c0,0,1.7,0.2,6,0.2c4.3,0,6.2-0.2,6.2-0.2l-0.7,1.3c-1.6,3-2,3.6-2,27.3v23.3h6.3c9.8,0,11.1-2.3,14-6.6
		C1111,65.3,1110.6,68.1,1110.1,74.2z"/>
	<path class="st0" d="M1156.9,76.3c-4.1,0-7,0.2-7,0.2c1-0.7,2.5-2.1,2.5-5c0-2.8-1.5-7.8-3.2-13.6l-1.6-5.3h-17.9l-1.6,5.3
		c-1.7,5.9-3.2,10.8-3.2,13.6c0,2.9,1.5,4.3,2.5,5c0,0-2.5-0.2-6.6-0.2c-4.3,0-6.4,0.2-6.4,0.2c2.9-2.8,4.4-7.8,7.9-18.7l10.5-33
		c0.3-0.9,0.6-1.9,0.6-2.9s-0.4-1.5-0.6-1.7h13.4c0,0.1-0.5,0.6-0.5,1.7c0,1,0.2,2,0.6,2.9l9.8,33c3.2,11,4.7,15.9,7.6,18.7
		C1163.9,76.5,1161.3,76.3,1156.9,76.3z M1140.6,28.5c-0.9-2.9-1.7-5.9-1.7-5.9l-7.7,25.2h15.1L1140.6,28.5z"/>
	<path class="st0" d="M1208.2,76.7c-5.2,0-7-2.6-10.8-8.2l-5.9-9c-5.1-7.8-6.1-9.3-10.5-9.3c-0.8,0-1.4,0.1-1.4,0.1
		c0,20.2,0.3,21.7,2,24.9l0.7,1.3c0,0-1.7-0.2-5.9-0.2c-4.3,0-6.1,0.2-6.1,0.2l0.7-1.3c1.6-2.9,2-3.6,2-27.3c0-23-0.3-23.3-2-26.5
		l-0.7-1.3c0,0,2.1,0.2,5.2,0.2c2.3,0,5.8-0.2,8.6-0.2c8.6,0,20.5,0.7,20.5,14.2c0,5.5-2.5,15.1-17.6,14.9
		c6.9,0.9,9.3,4.7,13.6,11.5l3.6,5.9c2.9,4.7,5.1,8.3,8.5,9.7C1212.6,76.2,1211.5,76.7,1208.2,76.7z M1183.7,24.3
		c-2.1,0-4.1,0.2-4.1,0.2v21.4c0,0,1.7,0.2,4.8,0.2c0.9,0,3.5-0.2,4.8-0.3c4.3-0.6,7.9-4.1,7.9-10.8
		C1197.1,25.2,1191.1,24.3,1183.7,24.3z"/>
	<path class="st0" d="M1224.5,76.3c-4.3,0-6.1,0.2-6.1,0.2l0.7-1.3c1.6-3,2-3.6,2-27.3c0-23-0.3-23.3-2-26.5l-0.7-1.3
		c0,0,1.7,0.2,6,0.2c4.3,0,6.1-0.2,6.1-0.2l-0.7,1.3c-1.6,3-2,3.6-2,27.3c0,23,0.3,23.3,2,26.5l0.7,1.3
		C1230.5,76.5,1228.8,76.3,1224.5,76.3z"/>
	<path class="st0" d="M1263.5,77.3c-15.9,0-24.8-11.3-24.8-27.7c0-5.3,0.2-30.2,24.9-30.2c15.9,0,24.8,11.3,24.8,27.7
		C1288.4,52.4,1288.2,77.3,1263.5,77.3z M1263.5,24.2c-8.6,0-17.3,5.8-17.3,24.5c0,18.3,8.5,23.9,17.4,23.9
		c8.6,0,17.3-5.8,17.3-24.5C1280.9,29.7,1272.4,24.2,1263.5,24.2z"/>
	<path class="st0" d="M1296.6,51.2v-5.5h18.7v5.5H1296.6z"/>
	<path class="st0" d="M1360.1,76.7c-5.2,0-7-2.6-10.8-8.2l-5.9-9c-5.1-7.8-6.1-9.3-10.5-9.3c-0.8,0-1.4,0.1-1.4,0.1
		c0,20.2,0.3,21.7,2,24.9l0.7,1.3c0,0-1.7-0.2-5.9-0.2c-4.3,0-6.1,0.2-6.1,0.2l0.7-1.3c1.6-2.9,2-3.6,2-27.3c0-23-0.3-23.3-2-26.5
		l-0.7-1.3c0,0,2.1,0.2,5.2,0.2c2.3,0,5.8-0.2,8.6-0.2c8.6,0,20.5,0.7,20.5,14.2c0,5.5-2.5,15.1-17.6,14.9
		c6.9,0.9,9.3,4.7,13.6,11.5l3.6,5.9c2.9,4.7,5.1,8.3,8.5,9.7C1364.5,76.2,1363.4,76.7,1360.1,76.7z M1335.6,24.3
		c-2.1,0-4.1,0.2-4.1,0.2v21.4c0,0,1.7,0.2,4.8,0.2c0.9,0,3.5-0.2,4.8-0.3c4.3-0.6,7.9-4.1,7.9-10.8
		C1349,25.2,1343,24.3,1335.6,24.3z"/>
	<path class="st0" d="M1403.1,74.2l-0.2,2.2h-26.5c-4.3,0-6.1,0.1-6.1,0.1l0.7-1.3c1.6-3,2-3.6,2-27.3c0-23-0.3-23.3-2-26.5
		l-0.7-1.3c0,0,1.7,0.1,6,0.1h25.8c0,0-0.1,1.2-0.1,3.8c0,3,0.2,4.4,0.2,4.6c-0.1-0.1-0.6-0.8-2.8-2.1c-1.9-1.1-5-1.7-8.7-1.7h-10.9
		v21.4h9c3.7,0,6.8-0.4,8.7-1.5c2.1-1.2,2.7-1.9,2.8-2.1c0,0.1-0.2,2.4-0.2,5.9c0,3.4,0.2,5.6,0.2,5.8c-0.1-0.1-0.6-0.8-2.8-2.1
		c-1.9-1.1-5-1.5-8.7-1.5h-9v21.5h10.1c9.8,0,11.1-2.3,14-6.6C1403.9,65.3,1403.5,68.1,1403.1,74.2z"/>
	<path class="st0" d="M1442.6,36.1l-8.1,14.6c0,20.2,0.3,21.4,2,24.5l0.7,1.3c0,0-1.7-0.2-6-0.2c-4.3,0-6.1,0.2-6.1,0.2l0.7-1.3
		c1.5-2.8,2-4.4,2-22.5l-9-16.7c-7-13.1-7.7-13.8-10.4-15.9c0,0,1.9,0.2,7.7,0.2c5.9,0,7.3-0.2,7.3-0.2c-1.3,1.1-1.8,2.5-1.8,3.7
		c0,2.2,0.4,3.2,4.3,10.7l6.1,11.6l6-11.7c3.9-7.5,4-8.4,4-10.6c0-1.3-0.6-2.6-1.8-3.7c0,0,2.6,0.2,6.5,0.2c5.1,0,6.8-0.2,6.8-0.2
		C1450.6,21.8,1449.8,23.2,1442.6,36.1z"/>
	<path class="st0" d="M1491.6,74.2l-0.2,2.2h-26.5c-4.3,0-6.1,0.1-6.1,0.1l0.7-1.3c1.6-3,2-3.6,2-27.3c0-23-0.3-23.3-2-26.5
		l-0.7-1.3c0,0,1.7,0.1,6,0.1h25.8c0,0-0.1,1.2-0.1,3.8c0,3,0.2,4.4,0.2,4.6c-0.1-0.1-0.6-0.8-2.8-2.1c-1.9-1.1-5-1.7-8.7-1.7h-10.9
		v21.4h9c3.7,0,6.8-0.4,8.7-1.5c2.1-1.2,2.7-1.9,2.8-2.1c0,0.1-0.2,2.4-0.2,5.9c0,3.4,0.2,5.6,0.2,5.8c-0.1-0.1-0.6-0.8-2.8-2.1
		c-1.9-1.1-5-1.5-8.7-1.5h-9v21.5h10.1c9.8,0,11.1-2.3,14-6.6C1492.4,65.3,1492,68.1,1491.6,74.2z"/>
	<path class="st0" d="M1513.6,76.9c-9,0-13.4-2.5-13.4-2.5s0.2-1.8,0.2-4.6c0-3.1-0.2-5.7-0.2-5.7c3.4,4.9,6.6,8.1,13.5,8.1
		c4.7,0,11.9-0.6,11.9-8.8c0-5.1-2.7-7.4-6.1-9.7l-7.2-4.8c-5.2-3.5-11.7-7-11.7-15.9c0-6.8,4.4-13.5,17.3-13.5
		c7.8,0,12.3,2.3,12.3,2.3s-0.2,1.8-0.2,4.8c0,3.1,0.2,5.3,0.2,5.3c-3.4-4.9-6.5-7.8-12.7-7.8c-2.7,0-10.4,0.2-10.4,8.1
		c0,4.9,3.3,7,7.8,10l5.6,3.8c6,4,11.7,7,11.7,16.4C1532.2,73.1,1524.7,76.9,1513.6,76.9z"/>
	<path class="st0" d="M1567.1,76.3c-4.3,0-6.1,0.2-6.1,0.2l0.7-1.3c1.6-3,2-3.6,2-27.3c0-23-0.3-23.3-2-26.5L1561,20
		c0,0,1.7,0.2,6,0.2c4.3,0,6.1-0.2,6.1-0.2l-0.7,1.3c-1.6,3-2,3.6-2,27.3c0,23,0.3,23.3,2,26.5l0.7,1.3
		C1573.1,76.5,1571.3,76.3,1567.1,76.3z"/>
	<path class="st0" d="M1627.9,21.4c-1.5,2.8-1.8,3.6-1.9,27.3l-0.1,27.9c0,0-1.7-0.2-4.3-0.2c-3.1,0-4.6,0.2-4.6,0.2L1592.7,31
		c-1.3-2.3-2.1-5.6-2.1-5.6v23.3c0,23,0.3,23.3,2,26.5l0.7,1.3c0,0-1.8-0.2-5.5-0.2c-3.6,0-5.2,0.2-5.2,0.2l0.7-1.3
		c1.5-2.8,2-3.6,2-27.3c0-23-0.3-23.3-2-26.5l-0.7-1.3c0,0,1.6,0.2,6.2,0.2c3.7,0,5.4-0.2,5.4-0.2l24.3,45.5c1.6,3,2.2,5.6,2.2,5.6
		V47.8c0-23-0.3-23.3-2-26.5l-0.7-1.3c0,0,1.8,0.2,5.5,0.2c3.6,0,5.2-0.2,5.2-0.2L1627.9,21.4z"/>
	<path class="st0" d="M32.1,171.8c-26.5,0-27.8-20.1-27.8-28.1c0-18.5,10.4-29.3,28.4-29.3c9.9,0,13.8,2.3,13.8,2.3
		s-0.2,1.8-0.2,4.8c0,3.1,0.2,5.3,0.2,5.3c-3.4-4.9-6.2-7.8-13.9-7.8c-7.6,0-20.9,2.3-20.9,24.4c0,12.6,3.9,23.7,20.6,23.7
		c8,0,10.8-3,14.2-7.9c0,0-0.2,2.6-0.2,5.7c0,2.8,0.2,4.6,0.2,4.6S41,171.8,32.1,171.8z"/>
	<path class="st0" d="M77.2,172.2c-15.9,0-24.8-11.3-24.8-27.7c0-5.3,0.2-30.2,24.9-30.2c15.9,0,24.8,11.3,24.8,27.7
		C102.1,147.3,101.9,172.2,77.2,172.2z M77.2,119.1c-8.6,0-17.3,5.8-17.3,24.5c0,18.3,8.5,23.9,17.4,23.9c8.6,0,17.3-5.8,17.3-24.5
		C94.6,124.6,86.1,119.1,77.2,119.1z"/>
	<path class="st0" d="M155.7,116.3c-1.5,2.8-1.8,3.6-1.9,27.3l-0.1,27.9c0,0-1.7-0.2-4.3-0.2c-3.1,0-4.6,0.2-4.6,0.2l-24.4-45.6
		c-1.3-2.3-2.1-5.6-2.1-5.6v23.3c0,23,0.3,23.3,2,26.5l0.7,1.3c0,0-1.8-0.2-5.5-0.2c-3.6,0-5.2,0.2-5.2,0.2l0.7-1.3
		c1.5-2.8,2-3.6,2-27.3c0-23-0.3-23.3-2-26.5l-0.7-1.3c0,0,1.6,0.2,6.2,0.2c3.7,0,5.4-0.2,5.4-0.2l24.3,45.5c1.6,3,2.2,5.6,2.2,5.6
		v-23.3c0-23-0.3-23.3-2-26.5l-0.7-1.3c0,0,1.8,0.2,5.5,0.2c3.6,0,5.2-0.2,5.2-0.2L155.7,116.3z"/>
	<path class="st0" d="M204.3,133.7l-12.8,37.7c0,0-2.1-0.2-4.3-0.2c-2.1,0-4.3,0.2-4.3,0.2l-12.6-37.7c-3.6-10.9-5.2-15.9-8.1-18.7
		c0,0,2.8,0.2,6.8,0.2c4.8,0,7.6-0.2,7.6-0.2c-1,0.7-2.5,2.1-2.5,5c0,2.8,1.7,7.4,3.5,13.2l9.6,30.4c0.7,2.2,0.9,3.6,0.9,3.6
		s0.3-1.3,1-3.6l9.5-30.4c1.8-5.9,3.5-10.4,3.5-13.2c0-2.9-1.5-4.3-2.5-5c0,0,2.5,0.2,6.6,0.2c4.4,0,6.6-0.2,6.6-0.2
		C209.7,117.8,208,122.7,204.3,133.7z"/>
	<path class="st0" d="M251,169.1l-0.2,2.2h-26.5c-4.3,0-6.1,0.1-6.1,0.1l0.7-1.3c1.6-3,2-3.6,2-27.3c0-23-0.3-23.3-2-26.5l-0.7-1.3
		c0,0,1.7,0.1,6,0.1h25.8c0,0-0.1,1.2-0.1,3.8c0,3,0.2,4.4,0.2,4.6c-0.1-0.1-0.6-0.8-2.8-2.1c-1.9-1.1-5-1.7-8.7-1.7h-10.9v21.4h9
		c3.7,0,6.8-0.4,8.7-1.5c2.1-1.2,2.7-1.9,2.8-2.1c0,0.1-0.2,2.4-0.2,5.9c0,3.4,0.2,5.6,0.2,5.8c-0.1-0.1-0.6-0.8-2.8-2.1
		c-1.9-1.1-5-1.5-8.7-1.5h-9v21.5h10.1c9.8,0,11.1-2.3,14-6.6C251.9,160.2,251.5,163,251,169.1z"/>
	<path class="st0" d="M297.8,171.6c-5.2,0-7-2.6-10.8-8.2l-5.9-9c-5.1-7.8-6.1-9.3-10.5-9.3c-0.8,0-1.4,0.1-1.4,0.1
		c0,20.2,0.3,21.7,2,24.9l0.7,1.3c0,0-1.7-0.2-5.9-0.2c-4.3,0-6.1,0.2-6.1,0.2l0.7-1.3c1.6-2.9,2-3.6,2-27.3c0-23-0.3-23.3-2-26.5
		l-0.7-1.3c0,0,2.1,0.2,5.2,0.2c2.3,0,5.8-0.2,8.6-0.2c8.6,0,20.5,0.7,20.5,14.2c0,5.5-2.5,15.1-17.6,14.9
		c6.9,0.9,9.3,4.7,13.6,11.5l3.6,5.9c2.9,4.7,5.1,8.3,8.5,9.7C302.3,171.1,301.2,171.6,297.8,171.6z M273.3,119.2
		c-2.1,0-4.1,0.2-4.1,0.2v21.4c0,0,1.7,0.2,4.8,0.2c0.9,0,3.5-0.2,4.8-0.3c4.3-0.6,7.9-4.1,7.9-10.8
		C286.8,120.1,280.8,119.2,273.3,119.2z"/>
	<path class="st0" d="M320.4,171.8c-9,0-13.4-2.5-13.4-2.5s0.2-1.8,0.2-4.6c0-3.1-0.2-5.7-0.2-5.7c3.4,4.9,6.6,8.1,13.5,8.1
		c4.7,0,11.9-0.6,11.9-8.8c0-5.1-2.7-7.4-6.1-9.7l-7.2-4.8c-5.2-3.5-11.7-7-11.7-15.9c0-6.8,4.4-13.5,17.3-13.5
		c7.8,0,12.3,2.3,12.3,2.3s-0.2,1.8-0.2,4.8c0,3.1,0.2,5.3,0.2,5.3c-3.4-4.9-6.5-7.8-12.7-7.8c-2.7,0-10.4,0.2-10.4,8.1
		c0,4.9,3.3,7,7.8,10l5.6,3.8c6,4,11.7,7,11.7,16.4C339,168,331.5,171.8,320.4,171.8z"/>
	<path class="st0" d="M383.8,171.2c-4.1,0-7,0.2-7,0.2c1-0.7,2.5-2.1,2.5-5c0-2.8-1.5-7.8-3.2-13.6l-1.6-5.3h-17.9l-1.6,5.3
		c-1.7,5.9-3.2,10.8-3.2,13.6c0,2.9,1.5,4.3,2.5,5c0,0-2.5-0.2-6.6-0.2c-4.3,0-6.4,0.2-6.4,0.2c2.9-2.8,4.4-7.8,7.9-18.7l10.5-33
		c0.3-0.9,0.6-1.9,0.6-2.9s-0.4-1.5-0.6-1.7h13.4c0,0.1-0.5,0.6-0.5,1.7c0,1,0.2,2,0.6,2.9l9.8,33c3.2,11,4.7,15.9,7.6,18.7
		C390.8,171.4,388.2,171.2,383.8,171.2z M367.5,123.4c-0.9-2.9-1.7-5.9-1.7-5.9l-7.7,25.2h15.1L367.5,123.4z"/>
	<path class="st0" d="M427.2,123.4c-0.1-0.1-0.6-0.8-2.8-2.1c-1.9-1.1-5-1.9-8.7-1.9h-5.3v24.2c0,23,0.3,23.3,2,26.5l0.7,1.3
		c0,0-1.7-0.2-6-0.2s-6.1,0.2-6.1,0.2l0.7-1.3c1.6-3,2-3.6,2-27.3v-23.4h-5.3c-3.7,0-6.8,0.8-8.7,1.9c-2.1,1.3-2.8,2-2.8,2.1
		c0-0.1,0.2-1.6,0.2-4.6c0-2.6-0.1-3.8-0.1-3.8h40.1c0,0-0.1,1.2-0.1,3.8C427,121.8,427.2,123.2,427.2,123.4z"/>
	<path class="st0" d="M439.9,171.2c-4.3,0-6.1,0.2-6.1,0.2l0.7-1.3c1.6-3,2-3.6,2-27.3c0-23-0.3-23.3-2-26.5l-0.7-1.3
		c0,0,1.7,0.2,6,0.2c4.3,0,6.1-0.2,6.1-0.2l-0.7,1.3c-1.6,3-2,3.6-2,27.3c0,23,0.3,23.3,2,26.5l0.7,1.3
		C445.9,171.4,444.2,171.2,439.9,171.2z"/>
	<path class="st0" d="M478.9,172.2c-15.9,0-24.8-11.3-24.8-27.7c0-5.3,0.2-30.2,24.9-30.2c15.9,0,24.8,11.3,24.8,27.7
		C503.8,147.3,503.6,172.2,478.9,172.2z M478.9,119.1c-8.6,0-17.3,5.8-17.3,24.5c0,18.3,8.5,23.9,17.4,23.9
		c8.6,0,17.3-5.8,17.3-24.5C496.3,124.6,487.8,119.1,478.9,119.1z"/>
	<path class="st0" d="M557.4,116.3c-1.5,2.8-1.8,3.6-1.9,27.3l-0.1,27.9c0,0-1.7-0.2-4.3-0.2c-3.1,0-4.6,0.2-4.6,0.2l-24.4-45.6
		c-1.3-2.3-2.1-5.6-2.1-5.6v23.3c0,23,0.3,23.3,2,26.5l0.7,1.3c0,0-1.8-0.2-5.5-0.2c-3.6,0-5.2,0.2-5.2,0.2l0.7-1.3
		c1.5-2.8,2-3.6,2-27.3c0-23-0.3-23.3-2-26.5l-0.7-1.3c0,0,1.6,0.2,6.2,0.2c3.7,0,5.4-0.2,5.4-0.2l24.3,45.5c1.6,3,2.2,5.6,2.2,5.6
		v-23.3c0-23-0.3-23.3-2-26.5l-0.7-1.3c0,0,1.8,0.2,5.5,0.2c3.6,0,5.2-0.2,5.2-0.2L557.4,116.3z"/>
	<path class="st0" d="M655.4,133.7l-10.6,37.7c0,0-2.1-0.2-4.6-0.2c-2.7,0-4.7,0.2-4.7,0.2l-12.7-47.8c-0.5-1.8-0.6-3.1-0.6-3.4
		c-0.1,0.3-0.2,1.5-0.7,3.4l-11.8,47.8c0,0-2.1-0.2-4.7-0.2c-2.6,0-4.7,0.2-4.7,0.2l-10.7-37.7c-3.2-11.1-4.7-15.9-7.6-18.7
		c0,0,2.7,0.2,6.7,0.2c4.8,0,7.6-0.2,7.6-0.2c-1,0.7-2.5,2.1-2.5,5c0,2.8,1.3,7.4,2.9,13.2l8.1,30.4c0.6,2.2,0.8,4,0.8,4
		s0.3-1.7,0.9-4l12-48.6c0,0,2.4,0.2,4.6,0.2c2.1,0,4.4-0.2,4.4-0.2l12.9,48.6c0.5,1.8,0.8,3.9,0.8,3.9s0.2-1.8,0.8-3.9l7.8-30.4
		c1.5-5.9,2.8-10.4,2.8-13.2c0-2.9-1.5-4.3-2.5-5c0,0,2.5,0.2,6.6,0.2c4.3,0,6.5-0.2,6.5-0.2C660.1,117.8,658.5,122.6,655.4,133.7z"
		/>
	<path class="st0" d="M675.3,171.2c-4.3,0-6.1,0.2-6.1,0.2l0.7-1.3c1.6-3,2-3.6,2-27.3c0-23-0.3-23.3-2-26.5l-0.7-1.3
		c0,0,1.7,0.2,6,0.2c4.3,0,6.1-0.2,6.1-0.2l-0.7,1.3c-1.6,3-2,3.6-2,27.3c0,23,0.3,23.3,2,26.5l0.7,1.3
		C681.3,171.4,679.6,171.2,675.3,171.2z"/>
	<path class="st0" d="M728.2,123.4c-0.1-0.1-0.6-0.8-2.8-2.1c-1.9-1.1-5-1.9-8.7-1.9h-5.3v24.2c0,23,0.3,23.3,2,26.5l0.7,1.3
		c0,0-1.7-0.2-6-0.2s-6.1,0.2-6.1,0.2l0.7-1.3c1.6-3,2-3.6,2-27.3v-23.4h-5.3c-3.7,0-6.8,0.8-8.7,1.9c-2.1,1.3-2.8,2-2.8,2.1
		c0-0.1,0.2-1.6,0.2-4.6c0-2.6-0.1-3.8-0.1-3.8h40.1c0,0-0.1,1.2-0.1,3.8C728,121.8,728.2,123.2,728.2,123.4z"/>
	<path class="st0" d="M775.1,171.2c-4.3,0-6.1,0.2-6.1,0.2l0.7-1.3c1.5-2.9,2-3.7,2-25.2h-27.4c0,21.6,0.3,22.1,2,25.2l0.7,1.3
		c0,0-1.7-0.2-6-0.2c-4.3,0-6.1,0.2-6.1,0.2l0.7-1.3c1.6-3,2-3.6,2-27.3c0-23-0.3-23.3-2-26.5l-0.7-1.3c0,0,1.7,0.2,6,0.2
		c4.3,0,6.1-0.2,6.1-0.2l-0.7,1.3c-1.5,2.8-2,3.6-2,23.3h27.4c0-19.5-0.4-20.3-2-23.3l-0.7-1.3c0,0,1.7,0.2,6,0.2s6.1-0.2,6.1-0.2
		l-0.7,1.3c-1.6,3-2,3.6-2,27.3c0,23,0.3,23.3,2,26.5l0.7,1.3C781.1,171.4,779.3,171.2,775.1,171.2z"/>
	<path class="st0" d="M823.8,171.8c-9,0-13.4-2.5-13.4-2.5s0.2-1.8,0.2-4.6c0-3.1-0.2-5.7-0.2-5.7c3.4,4.9,6.6,8.1,13.5,8.1
		c4.7,0,11.9-0.6,11.9-8.8c0-5.1-2.7-7.4-6.1-9.7l-7.2-4.8c-5.2-3.5-11.7-7-11.7-15.9c0-6.8,4.4-13.5,17.3-13.5
		c7.8,0,12.3,2.3,12.3,2.3s-0.2,1.8-0.2,4.8c0,3.1,0.2,5.3,0.2,5.3c-3.4-4.9-6.5-7.8-12.7-7.8c-2.7,0-10.4,0.2-10.4,8.1
		c0,4.9,3.3,7,7.8,10l5.6,3.8c6,4,11.7,7,11.7,16.4C842.4,168,834.9,171.8,823.8,171.8z"/>
	<path class="st0" d="M887.4,123.4c-0.1-0.1-0.6-0.8-2.8-2.1c-1.9-1.1-5-1.9-8.7-1.9h-5.3v24.2c0,23,0.3,23.3,2,26.5l0.7,1.3
		c0,0-1.7-0.2-6-0.2s-6.1,0.2-6.1,0.2l0.7-1.3c1.6-3,2-3.6,2-27.3v-23.4h-5.3c-3.7,0-6.8,0.8-8.7,1.9c-2.1,1.3-2.8,2-2.8,2.1
		c0-0.1,0.2-1.6,0.2-4.6c0-2.6-0.1-3.8-0.1-3.8h40.1c0,0-0.1,1.2-0.1,3.8C887.1,121.8,887.4,123.2,887.4,123.4z"/>
	<path class="st0" d="M926.7,169.1l-0.2,2.2H900c-4.3,0-6.1,0.1-6.1,0.1l0.7-1.3c1.6-3,2-3.6,2-27.3c0-23-0.3-23.3-2-26.5l-0.7-1.3
		c0,0,1.7,0.1,6,0.1h25.8c0,0-0.1,1.2-0.1,3.8c0,3,0.2,4.4,0.2,4.6c-0.1-0.1-0.6-0.8-2.8-2.1c-1.9-1.1-5-1.7-8.7-1.7h-10.9v21.4h9
		c3.7,0,6.8-0.4,8.7-1.5c2.1-1.2,2.7-1.9,2.8-2.1c0,0.1-0.2,2.4-0.2,5.9c0,3.4,0.2,5.6,0.2,5.8c-0.1-0.1-0.6-0.8-2.8-2.1
		c-1.9-1.1-5-1.5-8.7-1.5h-9v21.5h10.1c9.8,0,11.1-2.3,14-6.6C927.5,160.2,927.1,163,926.7,169.1z"/>
	<path class="st0" d="M964.5,169.1l-0.2,2.2h-22.7c-4.3,0-6.1,0.1-6.1,0.1l0.7-1.3c1.6-3,2-3.6,2-27.3c0-23-0.3-23.3-2-26.5
		l-0.7-1.3c0,0,1.7,0.2,6,0.2c4.3,0,6.2-0.2,6.2-0.2l-0.7,1.3c-1.6,3-2,3.6-2,27.3v23.3h6.3c9.8,0,11.1-2.3,14-6.6
		C965.3,160.2,964.9,163,964.5,169.1z"/>
	<path class="st0" d="M1001,169.1l-0.2,2.2h-22.7c-4.3,0-6.1,0.1-6.1,0.1l0.7-1.3c1.6-3,2-3.6,2-27.3c0-23-0.3-23.3-2-26.5l-0.7-1.3
		c0,0,1.7,0.2,6,0.2c4.3,0,6.2-0.2,6.2-0.2l-0.7,1.3c-1.6,3-2,3.6-2,27.3v23.3h6.3c9.8,0,11.1-2.3,14-6.6
		C1001.9,160.2,1001.5,163,1001,169.1z"/>
	<path class="st0" d="M1047.8,171.2c-4.1,0-7,0.2-7,0.2c1-0.7,2.5-2.1,2.5-5c0-2.8-1.5-7.8-3.2-13.6l-1.6-5.3h-17.9l-1.6,5.3
		c-1.7,5.9-3.2,10.8-3.2,13.6c0,2.9,1.5,4.3,2.5,5c0,0-2.5-0.2-6.6-0.2c-4.3,0-6.4,0.2-6.4,0.2c2.9-2.8,4.4-7.8,7.9-18.7l10.5-33
		c0.3-0.9,0.6-1.9,0.6-2.9s-0.4-1.5-0.6-1.7h13.4c0,0.1-0.5,0.6-0.5,1.7c0,1,0.2,2,0.6,2.9l9.8,33c3.2,11,4.7,15.9,7.6,18.7
		C1054.8,171.4,1052.2,171.2,1047.8,171.2z M1031.5,123.4c-0.9-2.9-1.7-5.9-1.7-5.9l-7.7,25.2h15.1L1031.5,123.4z"/>
	<path class="st0" d="M1117.3,171.6c-5.2,0-7-2.6-10.8-8.2l-5.9-9c-5.1-7.8-6.1-9.3-10.5-9.3c-0.8,0-1.4,0.1-1.4,0.1
		c0,20.2,0.3,21.7,2,24.9l0.7,1.3c0,0-1.7-0.2-5.9-0.2c-4.3,0-6.1,0.2-6.1,0.2l0.7-1.3c1.6-2.9,2-3.6,2-27.3c0-23-0.3-23.3-2-26.5
		l-0.7-1.3c0,0,2.1,0.2,5.2,0.2c2.3,0,5.8-0.2,8.6-0.2c8.6,0,20.5,0.7,20.5,14.2c0,5.5-2.5,15.1-17.6,14.9
		c6.9,0.9,9.3,4.7,13.6,11.5l3.6,5.9c2.9,4.7,5.1,8.3,8.5,9.7C1121.8,171.1,1120.6,171.6,1117.3,171.6z M1092.8,119.2
		c-2.1,0-4.1,0.2-4.1,0.2v21.4c0,0,1.7,0.2,4.8,0.2c0.9,0,3.5-0.2,4.8-0.3c4.3-0.6,7.9-4.1,7.9-10.8
		C1106.3,120.1,1100.2,119.2,1092.8,119.2z"/>
	<path class="st0" d="M1166.8,171.2c-4.1,0-7,0.2-7,0.2c1-0.7,2.5-2.1,2.5-5c0-2.8-1.5-7.8-3.2-13.6l-1.6-5.3h-17.9l-1.6,5.3
		c-1.7,5.9-3.2,10.8-3.2,13.6c0,2.9,1.5,4.3,2.5,5c0,0-2.5-0.2-6.6-0.2c-4.3,0-6.4,0.2-6.4,0.2c2.9-2.8,4.4-7.8,7.9-18.7l10.5-33
		c0.3-0.9,0.6-1.9,0.6-2.9s-0.4-1.5-0.6-1.7h13.4c0,0.1-0.5,0.6-0.5,1.7c0,1,0.2,2,0.6,2.9l9.8,33c3.2,11,4.7,15.9,7.6,18.7
		C1173.7,171.4,1171.1,171.2,1166.8,171.2z M1150.5,123.4c-0.9-2.9-1.7-5.9-1.7-5.9l-7.7,25.2h15.1L1150.5,123.4z"/>
	<path class="st0" d="M1212.9,169.1l-0.2,2.2h-26.5c-4.3,0-6.1,0.1-6.1,0.1l0.7-1.3c1.6-3,2-3.6,2-27.3c0-23-0.3-23.3-2-26.5
		l-0.7-1.3c0,0,1.7,0.1,6,0.1h25.8c0,0-0.1,1.2-0.1,3.8c0,3,0.2,4.4,0.2,4.6c-0.1-0.1-0.6-0.8-2.8-2.1c-1.9-1.1-5-1.7-8.7-1.7h-10.9
		v21.4h9c3.7,0,6.8-0.4,8.7-1.5c2.1-1.2,2.7-1.9,2.8-2.1c0,0.1-0.2,2.4-0.2,5.9c0,3.4,0.2,5.6,0.2,5.8c-0.1-0.1-0.6-0.8-2.8-2.1
		c-1.9-1.1-5-1.5-8.7-1.5h-9v21.5h10.1c9.8,0,11.1-2.3,14-6.6C1213.7,160.2,1213.3,163,1212.9,169.1z"/>
	<path class="st0" d="M1270.7,169.8c-3.6,1.5-6.8,1.6-13.7,1.6c-2.7,0-5.3-0.2-8-0.2c-4.3,0-6.1,0.2-6.1,0.2l0.7-1.3
		c1.6-2.9,2-3.6,2-27.3c0-23-0.3-23.3-2-26.5l-0.7-1.3c0,0,2.1,0.2,5.2,0.2c2.3,0,5.5-0.2,7.8-0.2c11.3,0,21.4,1.2,21.4,13.7
		c0,8.2-5.2,12.5-11.7,13.8c5.4,0,13.7,2.9,13.7,13.6C1279.4,163.9,1274.9,168.1,1270.7,169.8z M1256.8,119.2
		c-2.1,0-4.5,0.2-4.5,0.2v21.1c0,0,1.8,0.2,4.9,0.2c0.9,0,3.2-0.2,4.6-0.3c4.3-0.6,8.1-4.2,8.1-11.1
		C1270,120,1263.3,119.2,1256.8,119.2z M1257.4,145c-2.5,0-5.1,0.2-5.1,0.2v21.8c0,0,1.2,0.2,5.5,0.2c4.2,0,7.1-0.5,8.5-1.2
		c1.9-0.9,5.6-2.8,5.6-10.3C1271.9,146.5,1265.4,145,1257.4,145z"/>
	<path class="st0" d="M1293.7,171.2c-4.3,0-6.1,0.2-6.1,0.2l0.7-1.3c1.6-3,2-3.6,2-27.3c0-23-0.3-23.3-2-26.5l-0.7-1.3
		c0,0,1.7,0.2,6,0.2c4.3,0,6.1-0.2,6.1-0.2l-0.7,1.3c-1.6,3-2,3.6-2,27.3c0,23,0.3,23.3,2,26.5l0.7,1.3
		C1299.7,171.4,1298,171.2,1293.7,171.2z"/>
	<path class="st0" d="M1354.5,116.3c-1.5,2.8-1.8,3.6-1.9,27.3l-0.1,27.9c0,0-1.7-0.2-4.3-0.2c-3.1,0-4.6,0.2-4.6,0.2l-24.4-45.6
		c-1.3-2.3-2.1-5.6-2.1-5.6v23.3c0,23,0.3,23.3,2,26.5l0.7,1.3c0,0-1.8-0.2-5.5-0.2c-3.6,0-5.2,0.2-5.2,0.2l0.7-1.3
		c1.5-2.8,2-3.6,2-27.3c0-23-0.3-23.3-2-26.5l-0.7-1.3c0,0,1.6,0.2,6.2,0.2c3.7,0,5.4-0.2,5.4-0.2l24.3,45.5c1.6,3,2.2,5.6,2.2,5.6
		v-23.3c0-23-0.3-23.3-2-26.5l-0.7-1.3c0,0,1.8,0.2,5.5,0.2c3.6,0,5.2-0.2,5.2-0.2L1354.5,116.3z"/>
	<path class="st0" d="M1370.5,171.2c-4.3,0-6.1,0.2-6.1,0.2l0.7-1.3c1.6-3,2-3.6,2-27.3c0-23-0.3-23.3-2-26.5l-0.7-1.3
		c0,0,1.7,0.2,6,0.2c4.3,0,6.1-0.2,6.1-0.2l-0.7,1.3c-1.6,3-2,3.6-2,27.3c0,23,0.3,23.3,2,26.5l0.7,1.3
		C1376.5,171.4,1374.8,171.2,1370.5,171.2z"/>
	<path class="st0" d="M1409.5,172.2c-15.9,0-24.8-11.3-24.8-27.7c0-5.3,0.2-30.2,24.9-30.2c15.9,0,24.8,11.3,24.8,27.7
		C1434.4,147.3,1434.2,172.2,1409.5,172.2z M1409.5,119.1c-8.6,0-17.3,5.8-17.3,24.5c0,18.3,8.5,23.9,17.4,23.9
		c8.6,0,17.3-5.8,17.3-24.5C1426.9,124.6,1418.4,119.1,1409.5,119.1z"/>
	<path class="st0" d="M1488,116.3c-1.5,2.8-1.8,3.6-1.9,27.3l-0.1,27.9c0,0-1.7-0.2-4.3-0.2c-3.1,0-4.6,0.2-4.6,0.2l-24.4-45.6
		c-1.3-2.3-2.1-5.6-2.1-5.6v23.3c0,23,0.3,23.3,2,26.5l0.7,1.3c0,0-1.8-0.2-5.5-0.2c-3.6,0-5.2,0.2-5.2,0.2l0.7-1.3
		c1.5-2.8,2-3.6,2-27.3c0-23-0.3-23.3-2-26.5l-0.7-1.3c0,0,1.6,0.2,6.2,0.2c3.7,0,5.4-0.2,5.4-0.2l24.3,45.5c1.6,3,2.2,5.6,2.2,5.6
		v-23.3c0-23-0.3-23.3-2-26.5l-0.7-1.3c0,0,1.8,0.2,5.5,0.2c3.6,0,5.2-0.2,5.2-0.2L1488,116.3z"/>
</g>
</svg>
