<?xml version="1.0" encoding="utf-8"?>
<!-- Generator: Adobe Illustrator 28.3.0, SVG Export Plug-In . SVG Version: 6.00 Build 0)  -->
<svg version="1.1" id="Layer_1" xmlns="http://www.w3.org/2000/svg" xmlns:xlink="http://www.w3.org/1999/xlink" x="0px" y="0px"
	 viewBox="0 0 928.8 428.9" style="enable-background:new 0 0 928.8 428.9;" xml:space="preserve">
<style type="text/css">
	.st0{fill:#FFFFFF;}
</style>
<g>
	<path class="st0" d="M99,102.1l-0.2,2.3H75.1c-4.5,0-6.4,0.1-6.4,0.1l0.7-1.4c1.7-3.1,2.1-3.8,2.1-28.6c0-24.1-0.3-24.4-2.1-27.7
		l-0.7-1.5c0,0,1.8,0.2,6.3,0.2s6.5-0.2,6.5-0.2l-0.7,1.4c-1.7,3.1-2.1,3.8-2.1,28.6v24.4h6.6c10.3,0,11.6-2.4,14.6-6.9
		C99.9,92.8,99.6,95.7,99,102.1z"/>
	<path class="st0" d="M141.2,102.1l-0.2,2.3h-27.6c-4.5,0-6.4,0.1-6.4,0.1l0.7-1.4c1.7-3.1,2.1-3.8,2.1-28.6
		c0-24.1-0.3-24.4-2.1-27.7l-0.7-1.5c0,0,1.8,0.1,6.3,0.1h27c0,0-0.1,1.3-0.1,4c0,3.1,0.2,4.6,0.2,4.8c-0.1-0.1-0.6-0.8-2.9-2.2
		c-2-1.2-5.2-1.8-9.1-1.8h-11.4v22.4h9.4c3.9,0,7.1-0.4,9.1-1.6c2.2-1.3,2.8-2,2.9-2.2c0,0.1-0.2,2.5-0.2,6.2c0,3.6,0.2,5.9,0.2,6.1
		c-0.1-0.1-0.6-0.8-2.9-2.2c-2-1.2-5.2-1.6-9.1-1.6h-9.4v22.5h10.6c10.3,0,11.6-2.4,14.6-6.9C142.1,92.8,141.7,95.7,141.2,102.1z"/>
	<path class="st0" d="M195.9,78.5c-1.6,2.9-2.1,4.2-2.1,23.6v0.5c0,0-5.4,2.4-15,2.4c-28.7,0-30.2-21-30.2-29.4
		c0-19.4,11.3-30.7,30.7-30.7c10.7,0,15,2.4,15,2.4s-0.2,1.9-0.2,5c0,3.2,0.2,5.5,0.2,5.5c-3.7-5.1-6.9-8.2-15.3-8.2
		c-8.2,0-22.7,2.4-22.7,25.5c0,13.6,4.4,24.8,22.4,24.8c5.3,0,8.1-0.6,8.1-0.6c0-15.4-0.4-18.1-2.1-21l-0.8-1.4c0,0,1.8,0.2,6.3,0.2
		c4.5,0,6.4-0.2,6.4-0.2L195.9,78.5z"/>
	<path class="st0" d="M244.8,104.3c-4.3,0-7.3,0.2-7.3,0.2c1-0.7,2.6-2.2,2.6-5.2c0-2.9-1.6-8.2-3.3-14.2l-1.7-5.5h-18.7l-1.7,5.5
		c-1.8,6.2-3.3,11.3-3.3,14.2c0,3,1.6,4.5,2.6,5.2c0,0-2.6-0.2-6.9-0.2c-4.5,0-6.7,0.2-6.7,0.2c3-2.9,4.6-8.2,8.3-19.6l11-34.5
		c0.3-0.9,0.6-2,0.6-3s-0.4-1.6-0.6-1.8h14c0,0.1-0.5,0.6-0.5,1.8c0,1,0.2,2.1,0.6,3L243.9,85c3.3,11.5,4.9,16.6,8,19.6
		C252,104.5,249.3,104.3,244.8,104.3z M227.7,54.3c-0.9-3-1.8-6.2-1.8-6.2l-8.1,26.4h15.8L227.7,54.3z"/>
	<path class="st0" d="M282.4,104.9c-27.7,0-29.1-21-29.1-29.4c0-19.4,10.9-30.7,29.7-30.7c10.4,0,14.4,2.4,14.4,2.4s-0.2,1.9-0.2,5
		c0,3.2,0.2,5.5,0.2,5.5c-3.6-5.1-6.5-8.2-14.5-8.2c-8,0-21.9,2.4-21.9,25.5c0,13.2,4.1,24.8,21.6,24.8c8.4,0,11.3-3.1,14.9-8.3
		c0,0-0.2,2.7-0.2,6c0,2.9,0.2,4.8,0.2,4.8S291.8,104.9,282.4,104.9z"/>
	<path class="st0" d="M337.8,62.3l-8.5,15.3c0,21.1,0.3,22.4,2.1,25.6l0.7,1.4c0,0-1.8-0.2-6.3-0.2s-6.4,0.2-6.4,0.2l0.7-1.4
		c1.6-2.9,2.1-4.6,2.1-23.5l-9.4-17.5c-7.3-13.7-8.1-14.4-10.9-16.6c0,0,2,0.2,8.1,0.2c6.2,0,7.6-0.2,7.6-0.2
		c-1.4,1.2-1.9,2.6-1.9,3.9c0,2.3,0.4,3.3,4.5,11.2l6.4,12.1l6.3-12.2c4.1-7.8,4.2-8.8,4.2-11.1c0-1.4-0.6-2.7-1.9-3.9
		c0,0,2.7,0.2,6.8,0.2c5.3,0,7.1-0.2,7.1-0.2C346.2,47.3,345.3,48.8,337.8,62.3z"/>
	<path class="st0" d="M412.7,104.7c-5.4,0-7.3-2.7-11.3-8.6l-6.2-9.4c-5.3-8.2-6.4-9.7-11-9.7c-0.8,0-1.5,0.1-1.5,0.1
		c0,21.1,0.3,22.7,2.1,26l0.7,1.4c0,0-1.8-0.2-6.2-0.2c-4.5,0-6.4,0.2-6.4,0.2l0.7-1.4c1.7-3,2.1-3.8,2.1-28.6
		c0-24.1-0.3-24.4-2.1-27.7l-0.7-1.4c0,0,2.2,0.2,5.4,0.2c2.4,0,6.1-0.2,9-0.2c9,0,21.4,0.7,21.4,14.9c0,5.8-2.6,15.8-18.4,15.6
		c7.2,0.9,9.7,4.9,14.2,12l3.8,6.2c3,4.9,5.3,8.7,8.9,10.1C417.3,104.2,416.1,104.7,412.7,104.7z M387,49.9c-2.2,0-4.3,0.2-4.3,0.2
		v22.4c0,0,1.8,0.2,5,0.2c0.9,0,3.7-0.2,5-0.3c4.5-0.6,8.3-4.3,8.3-11.3C401.1,50.9,394.8,49.9,387,49.9z"/>
	<path class="st0" d="M465.8,46.9c-1.6,2.9-2.1,3.8-2.1,24.4v4.9c0,10.8-0.2,15.6-2.4,19.8c-2.9,5.4-8.2,9.3-18.9,9.3
		c-8.2,0-14.4-2-18.1-7.4c-2.6-3.8-3.3-7.5-3.3-18v-6.4c0-22.2-0.3-23.2-2.1-26.6l-0.7-1.4c0,0,1.9,0.2,6.4,0.2s6.4-0.2,6.4-0.2
		l-0.7,1.4c-1.6,2.9-2.1,3.8-2.1,24.4v11.5c0,2.6,0.2,6,0.7,7.8c1.7,6.5,6.3,9.7,14,9.7c7.5,0,12.4-3.1,14.1-10
		c0.4-1.8,0.6-4.5,0.6-6.9v-8.8c0-24.1-0.3-24.4-2.1-27.7l-0.7-1.4c0,0,1.4,0.2,5.8,0.2c4.4,0,6-0.2,6-0.2L465.8,46.9z"/>
	<path class="st0" d="M488.3,104.9c-9.4,0-14-2.6-14-2.6s0.2-1.9,0.2-4.8c0-3.2-0.2-6-0.2-6c3.6,5.1,6.9,8.5,14.1,8.5
		c4.9,0,12.4-0.6,12.4-9.2c0-5.3-2.8-7.7-6.4-10.1l-7.5-5c-5.4-3.7-12.2-7.3-12.2-16.6c0-7.1,4.6-14.1,18.1-14.1
		c8.2,0,12.9,2.4,12.9,2.4s-0.2,1.9-0.2,5c0,3.2,0.2,5.5,0.2,5.5c-3.6-5.1-6.8-8.2-13.3-8.2c-2.8,0-10.9,0.2-10.9,8.5
		c0,5.1,3.5,7.3,8.2,10.5l5.9,4c6.3,4.2,12.2,7.3,12.2,17.2C507.8,101,499.9,104.9,488.3,104.9z"/>
	<path class="st0" d="M529.7,104.9c-9.4,0-14-2.6-14-2.6s0.2-1.9,0.2-4.8c0-3.2-0.2-6-0.2-6c3.6,5.1,6.9,8.5,14.1,8.5
		c4.9,0,12.4-0.6,12.4-9.2c0-5.3-2.8-7.7-6.4-10.1l-7.5-5c-5.4-3.7-12.2-7.3-12.2-16.6c0-7.1,4.6-14.1,18.1-14.1
		c8.2,0,12.9,2.4,12.9,2.4s-0.2,1.9-0.2,5c0,3.2,0.2,5.5,0.2,5.5c-3.6-5.1-6.8-8.2-13.3-8.2c-2.8,0-10.9,0.2-10.9,8.5
		c0,5.1,3.5,7.3,8.2,10.5l5.9,4c6.3,4.2,12.2,7.3,12.2,17.2C549.2,101,541.2,104.9,529.7,104.9z"/>
	<path class="st0" d="M591.8,102.1l-0.2,2.3h-27.7c-4.5,0-6.4,0.1-6.4,0.1l0.7-1.4c1.7-3.1,2.1-3.8,2.1-28.6
		c0-24.1-0.3-24.4-2.1-27.7l-0.7-1.4c0,0,1.8,0.1,6.3,0.1h27c0,0-0.1,1.3-0.1,4c0,3.1,0.2,4.6,0.2,4.8c-0.1-0.1-0.6-0.8-2.9-2.2
		c-2-1.2-5.2-1.8-9.1-1.8h-11.4v22.4h9.4c3.9,0,7.1-0.4,9.1-1.6c2.2-1.3,2.8-2,2.9-2.2c0,0.1-0.2,2.5-0.2,6.2c0,3.6,0.2,5.9,0.2,6.1
		c-0.1-0.1-0.6-0.8-2.9-2.2c-2-1.2-5.2-1.6-9.1-1.6h-9.4V100H578c10.3,0,11.6-2.4,14.6-6.9C592.7,92.8,592.3,95.7,591.8,102.1z"/>
	<path class="st0" d="M631.3,102.1l-0.2,2.3h-23.7c-4.5,0-6.4,0.1-6.4,0.1l0.7-1.4c1.7-3.1,2.1-3.8,2.1-28.6
		c0-24.1-0.3-24.4-2.1-27.7l-0.7-1.4c0,0,1.8,0.2,6.3,0.2s6.5-0.2,6.5-0.2l-0.7,1.4c-1.7,3.1-2.1,3.8-2.1,28.6v24.4h6.6
		c10.3,0,11.6-2.4,14.6-6.9C632.3,92.8,631.8,95.7,631.3,102.1z"/>
	<path class="st0" d="M669.5,102.1l-0.2,2.3h-23.7c-4.5,0-6.4,0.1-6.4,0.1l0.7-1.4c1.7-3.1,2.1-3.8,2.1-28.6
		c0-24.1-0.3-24.4-2.1-27.7l-0.7-1.4c0,0,1.8,0.2,6.3,0.2s6.5-0.2,6.5-0.2l-0.7,1.4c-1.7,3.1-2.1,3.8-2.1,28.6v24.4h6.6
		c10.3,0,11.6-2.4,14.6-6.9C670.4,92.8,670,95.7,669.5,102.1z"/>
	<path class="st0" d="M735.2,104.3c-4.3,0-7.3,0.2-7.3,0.2c1-0.7,2.6-2.2,2.6-5.2c0-2.9-1.6-8.2-3.3-14.2l-1.7-5.5h-18.7l-1.7,5.5
		c-1.8,6.2-3.3,11.3-3.3,14.2c0,3,1.6,4.5,2.6,5.2c0,0-2.6-0.2-6.9-0.2c-4.5,0-6.7,0.2-6.7,0.2c3-2.9,4.6-8.2,8.3-19.6l11-34.5
		c0.3-0.9,0.6-2,0.6-3s-0.4-1.6-0.6-1.8h14c0,0.1-0.5,0.6-0.5,1.8c0,1,0.2,2.1,0.6,3L734.4,85c3.3,11.5,4.9,16.6,8,19.6
		C742.5,104.5,739.8,104.3,735.2,104.3z M718.1,54.3c-0.9-3-1.8-6.2-1.8-6.2l-8.1,26.4h15.8L718.1,54.3z"/>
	<path class="st0" d="M796.6,46.9c-1.6,2.9-1.9,3.8-2,28.6l-0.1,29.2c0,0-1.8-0.2-4.5-0.2c-3.2,0-4.8,0.2-4.8,0.2l-25.4-47.7
		c-1.4-2.4-2.2-5.9-2.2-5.9v24.4c0,24.1,0.3,24.4,2.1,27.7l0.7,1.4c0,0-1.9-0.2-5.8-0.2c-3.8,0-5.4,0.2-5.4,0.2l0.7-1.4
		c1.6-2.9,2.1-3.8,2.1-28.6c0-24.1-0.3-24.4-2.1-27.7l-0.7-1.4c0,0,1.7,0.2,6.5,0.2c3.9,0,5.6-0.2,5.6-0.2l25.4,47.6
		c1.7,3.1,2.3,5.9,2.3,5.9V74.5c0-24.1-0.3-24.4-2.1-27.7l-0.7-1.4c0,0,1.9,0.2,5.8,0.2c3.8,0,5.4-0.2,5.4-0.2L796.6,46.9z"/>
	<path class="st0" d="M823.1,104.6c-3.6,0-6.2-0.2-9.5-0.2c-4.5,0-6.6,0.2-6.6,0.2l0.7-1.4c1.7-3,2.1-3.8,2.1-28.6
		c0-24.1-0.3-24.4-2.1-27.7l-0.7-1.4c0,0,2.2,0.2,6.6,0.2c3.3,0,7.3-0.2,10.9-0.2c7.5,0,30.7,0.6,30.7,28.2
		C855.2,104,833,104.6,823.1,104.6z M823,50c-3.3,0-6.1,0.2-6.1,0.2v49.5c0,0,3,0.2,5.8,0.2c10.7,0,24.7-1.3,24.7-25.2
		C847.3,52,834.4,50,823,50z"/>
	<path class="st0" d="M45.1,138.8c-1.7,3-2.1,3.8-2.1,28.7V200c0,6.7-0.5,14-12.3,14h-1.4c6.4-3.1,6.6-8.6,6.6-20.1v-27.4
		c0-24.1-0.3-24.5-2.1-27.8l-0.7-1.4c0,0,1.8,0.2,6.3,0.2s6.4-0.2,6.4-0.2L45.1,138.8z"/>
	<path class="st0" d="M89.6,194.1l-0.2,2.3H61.7c-4.5,0-6.4,0.1-6.4,0.1l0.7-1.4c1.7-3.1,2.1-3.8,2.1-28.6c0-24.1-0.3-24.4-2.1-27.7
		l-0.7-1.4c0,0,1.8,0.1,6.3,0.1h27c0,0-0.1,1.3-0.1,4c0,3.1,0.2,4.6,0.2,4.8c-0.1-0.1-0.6-0.8-2.9-2.2c-2-1.2-5.2-1.8-9.1-1.8H65.3
		v22.4h9.4c3.9,0,7.1-0.4,9.1-1.6c2.2-1.3,2.8-2,2.9-2.2c0,0.1-0.2,2.5-0.2,6.2c0,3.6,0.2,5.9,0.2,6.1c-0.1-0.1-0.6-0.8-2.9-2.2
		c-2-1.2-5.2-1.6-9.1-1.6h-9.4V192h10.6c10.3,0,11.6-2.4,14.6-6.9C90.5,184.8,90.1,187.7,89.6,194.1z"/>
	<path class="st0" d="M112.7,196.9c-9.4,0-14-2.6-14-2.6s0.2-1.9,0.2-4.8c0-3.2-0.2-6-0.2-6c3.6,5.1,6.9,8.5,14.1,8.5
		c4.9,0,12.4-0.6,12.4-9.2c0-5.3-2.8-7.7-6.4-10.1l-7.5-5c-5.4-3.7-12.2-7.3-12.2-16.6c0-7.1,4.6-14.1,18.1-14.1
		c8.2,0,12.9,2.4,12.9,2.4s-0.2,1.9-0.2,5c0,3.2,0.2,5.5,0.2,5.5c-3.6-5.1-6.8-8.2-13.3-8.2c-2.8,0-10.9,0.2-10.9,8.5
		c0,5.1,3.5,7.3,8.2,10.5l5.9,4c6.3,4.2,12.2,7.3,12.2,17.2C132.1,192.9,124.3,196.9,112.7,196.9z"/>
	<path class="st0" d="M187.1,138.8c-1.6,2.9-2.1,3.8-2.1,24.4v4.9c0,10.8-0.2,15.6-2.4,19.8c-2.9,5.4-8.2,9.3-18.9,9.3
		c-8.2,0-14.4-2-18.1-7.4c-2.6-3.8-3.3-7.5-3.3-18v-6.4c0-22.2-0.3-23.2-2.1-26.6l-0.7-1.4c0,0,1.9,0.2,6.4,0.2s6.4-0.2,6.4-0.2
		l-0.7,1.4c-1.6,2.9-2.1,3.8-2.1,24.4v11.5c0,2.6,0.2,6,0.7,7.8c1.7,6.5,6.3,9.7,14,9.7c7.5,0,12.4-3.1,14.1-10
		c0.4-1.8,0.6-4.5,0.6-6.9v-8.8c0-24.1-0.3-24.4-2.1-27.7l-0.7-1.4c0,0,1.4,0.2,5.8,0.2s6-0.2,6-0.2L187.1,138.8z M167.4,122.1h8.1
		c0,0-1,3-6.5,7.3c-4.9,4-8.6,4.6-8.6,4.6L167.4,122.1z"/>
	<path class="st0" d="M209.6,196.9c-9.4,0-14-2.6-14-2.6s0.2-1.9,0.2-4.8c0-3.2-0.2-6-0.2-6c3.6,5.1,6.9,8.5,14.1,8.5
		c4.9,0,12.4-0.6,12.4-9.2c0-5.3-2.8-7.7-6.4-10.1l-7.5-4.9c-5.4-3.7-12.2-7.3-12.2-16.6c0-7.1,4.6-14.1,18.1-14.1
		c8.2,0,12.9,2.4,12.9,2.4s-0.2,1.9-0.2,5c0,3.2,0.2,5.5,0.2,5.5c-3.6-5.1-6.8-8.2-13.3-8.2c-2.8,0-10.9,0.2-10.9,8.5
		c0,5.1,3.5,7.3,8.2,10.5l5.9,4c6.3,4.2,12.2,7.3,12.2,17.2C229,192.9,221.2,196.9,209.6,196.9z"/>
	<path class="st0" d="M301.2,196.3c-4.5,0-6.4,0.2-6.4,0.2l0.7-1.4c1.6-3,2.1-3.9,2.1-26.4H269c0,22.6,0.3,23.1,2.1,26.4l0.7,1.4
		c0,0-1.8-0.2-6.3-0.2c-4.5,0-6.4,0.2-6.4,0.2l0.7-1.4c1.7-3.1,2.1-3.8,2.1-28.6c0-24.1-0.3-24.4-2.1-27.7l-0.7-1.4
		c0,0,1.8,0.2,6.3,0.2c4.5,0,6.4-0.2,6.4-0.2l-0.7,1.4c-1.6,2.9-2.1,3.8-2.1,24.4h28.7c0-20.4-0.4-21.2-2.1-24.4l-0.7-1.4
		c0,0,1.8,0.2,6.3,0.2s6.4-0.2,6.4-0.2l-0.7,1.4c-1.7,3.1-2.1,3.8-2.1,28.6c0,24.1,0.3,24.4,2.1,27.7l0.7,1.4
		C307.5,196.5,305.7,196.3,301.2,196.3z"/>
	<path class="st0" d="M324,196.3c-4.5,0-6.4,0.2-6.4,0.2l0.7-1.4c1.7-3.1,2.1-3.8,2.1-28.6c0-24.1-0.3-24.4-2.1-27.7l-0.7-1.4
		c0,0,1.8,0.2,6.3,0.2c4.5,0,6.4-0.2,6.4-0.2l-0.7,1.4c-1.7,3.1-2.1,3.8-2.1,28.6c0,24.1,0.3,24.4,2.1,27.7l0.7,1.4
		C330.3,196.5,328.4,196.3,324,196.3z"/>
	<path class="st0" d="M370.5,194.1l-0.2,2.3h-23.7c-4.5,0-6.4,0.1-6.4,0.1l0.7-1.4c1.7-3.1,2.1-3.8,2.1-28.6
		c0-24.1-0.3-24.4-2.1-27.7l-0.7-1.4c0,0,1.8,0.2,6.3,0.2s6.5-0.2,6.5-0.2l-0.7,1.4c-1.7,3.1-2.1,3.8-2.1,28.6v24.4h6.6
		c10.3,0,11.6-2.4,14.6-6.9C371.4,184.8,371,187.7,370.5,194.1z"/>
	<path class="st0" d="M419.4,196.3c-4.3,0-7.3,0.2-7.3,0.2c1-0.7,2.6-2.2,2.6-5.2c0-2.9-1.6-8.2-3.3-14.2l-1.7-5.5H391l-1.7,5.5
		c-1.8,6.2-3.3,11.3-3.3,14.2c0,3,1.6,4.5,2.6,5.2c0,0-2.6-0.2-6.9-0.2c-4.5,0-6.7,0.2-6.7,0.2c3-2.9,4.6-8.2,8.3-19.6l11-34.5
		c0.3-0.9,0.6-2,0.6-3s-0.4-1.6-0.6-1.8h14c0,0.1-0.5,0.6-0.5,1.8c0,1,0.2,2.1,0.6,3l10.3,34.5c3.3,11.5,4.9,16.6,8,19.6
		C426.7,196.5,424,196.3,419.4,196.3z M402.4,146.3c-0.9-3-1.8-6.2-1.8-6.2l-8.1,26.4h15.8L402.4,146.3z"/>
	<path class="st0" d="M473.1,196.7c-5.4,0-7.3-2.7-11.3-8.6l-6.2-9.4c-5.3-8.2-6.4-9.7-11-9.7c-0.8,0-1.5,0.1-1.5,0.1
		c0,21.1,0.3,22.7,2.1,26l0.7,1.4c0,0-1.8-0.2-6.2-0.2c-4.5,0-6.4,0.2-6.4,0.2l0.7-1.4c1.7-3,2.1-3.8,2.1-28.6
		c0-24.1-0.3-24.4-2.1-27.7l-0.7-1.4c0,0,2.2,0.2,5.4,0.2c2.4,0,6.1-0.2,9-0.2c9,0,21.4,0.7,21.4,14.9c0,5.8-2.6,15.8-18.4,15.6
		c7.2,0.9,9.7,4.9,14.2,12l3.8,6.2c3,4.9,5.3,8.7,8.9,10.1C477.7,196.2,476.5,196.7,473.1,196.7z M447.4,141.9
		c-2.2,0-4.3,0.2-4.3,0.2v22.4c0,0,1.8,0.2,5,0.2c0.9,0,3.7-0.2,5-0.3c4.5-0.6,8.3-4.3,8.3-11.3
		C461.5,142.8,455.2,141.9,447.4,141.9z"/>
	<path class="st0" d="M490.1,196.3c-4.5,0-6.4,0.2-6.4,0.2l0.7-1.4c1.7-3.1,2.1-3.8,2.1-28.6c0-24.1-0.3-24.4-2.1-27.7l-0.7-1.4
		c0,0,1.8,0.2,6.3,0.2c4.5,0,6.4-0.2,6.4-0.2l-0.7,1.4c-1.7,3.1-2.1,3.8-2.1,28.6c0,24.1,0.3,24.4,2.1,27.7l0.7,1.4
		C496.4,196.5,494.6,196.3,490.1,196.3z"/>
	<path class="st0" d="M530.9,197.3c-16.6,0-25.9-11.8-25.9-29c0-5.5,0.2-31.6,26-31.6c16.6,0,25.9,11.8,25.9,29
		C557,171.3,556.8,197.3,530.9,197.3z M530.9,141.8c-9,0-18.1,6.1-18.1,25.6c0,19.1,8.9,25,18.2,25c9,0,18.1-6.1,18.1-25.6
		C549.1,147.5,540.2,141.8,530.9,141.8z"/>
	<path class="st0" d="M565.6,170v-5.8h19.6v5.8H565.6z"/>
	<path class="st0" d="M632,196.7c-5.4,0-7.3-2.7-11.3-8.6l-6.2-9.4c-5.3-8.2-6.4-9.7-11-9.7c-0.8,0-1.5,0.1-1.5,0.1
		c0,21.1,0.3,22.7,2.1,26l0.7,1.4c0,0-1.8-0.2-6.2-0.2c-4.5,0-6.4,0.2-6.4,0.2l0.7-1.4c1.7-3,2.1-3.8,2.1-28.6
		c0-24.1-0.3-24.4-2.1-27.7l-0.7-1.4c0,0,2.2,0.2,5.4,0.2c2.4,0,6.1-0.2,9-0.2c9,0,21.4,0.7,21.4,14.9c0,5.8-2.6,15.8-18.4,15.6
		c7.2,0.9,9.7,4.9,14.2,12l3.8,6.2c3,4.9,5.3,8.7,8.9,10.1C636.6,196.2,635.4,196.7,632,196.7z M606.4,141.9c-2.2,0-4.3,0.2-4.3,0.2
		v22.4c0,0,1.8,0.2,5,0.2c0.9,0,3.7-0.2,5-0.3c4.5-0.6,8.3-4.3,8.3-11.3C620.4,142.8,614.1,141.9,606.4,141.9z"/>
	<path class="st0" d="M677,194.1l-0.2,2.3H649c-4.5,0-6.4,0.1-6.4,0.1l0.7-1.4c1.7-3.1,2.1-3.8,2.1-28.6c0-24.1-0.3-24.4-2.1-27.7
		l-0.7-1.4c0,0,1.8,0.1,6.3,0.1h27c0,0-0.1,1.3-0.1,4c0,3.1,0.2,4.6,0.2,4.8c-0.1-0.1-0.6-0.8-2.9-2.2c-2-1.2-5.2-1.8-9.1-1.8h-11.4
		v22.4h9.4c3.9,0,7.1-0.4,9.1-1.6c2.2-1.3,2.8-2,2.9-2.2c0,0.1-0.2,2.5-0.2,6.2c0,3.6,0.2,5.9,0.2,6.1c-0.1-0.1-0.6-0.8-2.9-2.2
		c-2-1.2-5.2-1.6-9.1-1.6h-9.4V192h10.6c10.3,0,11.6-2.4,14.6-6.9C677.8,184.8,677.4,187.7,677,194.1z"/>
	<path class="st0" d="M718.3,154.2l-8.5,15.3c0,21.1,0.3,22.4,2.1,25.6l0.7,1.4c0,0-1.8-0.2-6.3-0.2s-6.4,0.2-6.4,0.2l0.7-1.4
		c1.6-2.9,2.1-4.6,2.1-23.5l-9.4-17.5c-7.3-13.7-8.1-14.4-10.9-16.6c0,0,2,0.2,8.1,0.2c6.2,0,7.6-0.2,7.6-0.2
		c-1.4,1.2-1.9,2.6-1.9,3.9c0,2.3,0.4,3.3,4.5,11.2l6.4,12.1l6.3-12.2c4.1-7.8,4.2-8.8,4.2-11.1c0-1.4-0.6-2.7-1.9-3.9
		c0,0,2.7,0.2,6.8,0.2c5.3,0,7.1-0.2,7.1-0.2C726.7,139.3,725.8,140.7,718.3,154.2z"/>
	<path class="st0" d="M769.6,194.1l-0.2,2.3h-27.7c-4.5,0-6.4,0.1-6.4,0.1l0.7-1.4c1.7-3.1,2.1-3.8,2.1-28.6
		c0-24.1-0.3-24.4-2.1-27.7l-0.7-1.4c0,0,1.8,0.1,6.3,0.1h27c0,0-0.1,1.3-0.1,4c0,3.1,0.2,4.6,0.2,4.8c-0.1-0.1-0.6-0.8-2.9-2.2
		c-2-1.2-5.2-1.8-9.1-1.8h-11.4v22.4h9.4c3.9,0,7.1-0.4,9.1-1.6c2.2-1.3,2.8-2,2.9-2.2c0,0.1-0.2,2.5-0.2,6.2c0,3.6,0.2,5.9,0.2,6.1
		c-0.1-0.1-0.6-0.8-2.9-2.2c-2-1.2-5.2-1.6-9.1-1.6h-9.4V192h10.6c10.3,0,11.6-2.4,14.6-6.9C770.4,184.8,770,187.7,769.6,194.1z"/>
	<path class="st0" d="M792.6,196.9c-9.4,0-14-2.6-14-2.6s0.2-1.9,0.2-4.8c0-3.2-0.2-6-0.2-6c3.6,5.1,6.9,8.5,14.1,8.5
		c4.9,0,12.4-0.6,12.4-9.2c0-5.3-2.8-7.7-6.4-10.1l-7.5-5c-5.4-3.7-12.2-7.3-12.2-16.6c0-7.1,4.6-14.1,18.1-14.1
		c8.2,0,12.9,2.4,12.9,2.4s-0.2,1.9-0.2,5c0,3.2,0.2,5.5,0.2,5.5c-3.6-5.1-6.8-8.2-13.3-8.2c-2.8,0-10.9,0.2-10.9,8.5
		c0,5.1,3.5,7.3,8.2,10.5l5.9,4c6.3,4.2,12.2,7.3,12.2,17.2C812,192.9,804.2,196.9,792.6,196.9z"/>
	<path class="st0" d="M848.5,196.3c-4.5,0-6.4,0.2-6.4,0.2l0.7-1.4c1.7-3.1,2.1-3.8,2.1-28.6c0-24.1-0.3-24.4-2.1-27.7l-0.7-1.5
		c0,0,1.8,0.2,6.3,0.2s6.4-0.2,6.4-0.2l-0.7,1.4c-1.7,3.1-2.1,3.8-2.1,28.6c0,24.1,0.3,24.4,2.1,27.7l0.7,1.4
		C854.8,196.5,852.9,196.3,848.5,196.3z"/>
	<path class="st0" d="M912.1,138.8c-1.6,2.9-1.9,3.8-2,28.6l-0.1,29.2c0,0-1.8-0.2-4.5-0.2c-3.2,0-4.8,0.2-4.8,0.2l-25.4-47.7
		c-1.4-2.4-2.2-5.9-2.2-5.9v24.4c0,24.1,0.3,24.4,2.1,27.7l0.7,1.4c0,0-1.9-0.2-5.8-0.2c-3.8,0-5.4,0.2-5.4,0.2l0.7-1.4
		c1.6-2.9,2.1-3.8,2.1-28.6c0-24.1-0.3-24.4-2.1-27.7l-0.7-1.4c0,0,1.7,0.2,6.5,0.2c3.9,0,5.6-0.2,5.6-0.2l25.4,47.6
		c1.7,3.1,2.3,5.9,2.3,5.9v-24.5c0-24.1-0.3-24.4-2.1-27.7l-0.7-1.4c0,0,1.9,0.2,5.8,0.2c3.8,0,5.4-0.2,5.4-0.2L912.1,138.8z"/>
	<path class="st0" d="M89.1,296.2c-27.7,0-29.1-21-29.1-29.4c0-19.4,10.9-30.7,29.7-30.7c10.4,0,14.4,2.4,14.4,2.4s-0.2,1.9-0.2,5
		c0,3.2,0.2,5.5,0.2,5.5c-3.6-5.1-6.5-8.2-14.5-8.2c-8,0-21.9,2.4-21.9,25.5c0,13.2,4.1,24.8,21.6,24.8c8.4,0,11.3-3.1,14.9-8.3
		c0,0-0.2,2.7-0.2,6c0,2.9,0.2,4.8,0.2,4.8S98.5,296.2,89.1,296.2z"/>
	<path class="st0" d="M136.3,296.6c-16.6,0-25.9-11.8-25.9-29c0-5.5,0.2-31.6,26-31.6c16.6,0,25.9,11.8,25.9,29
		C162.4,270.5,162.2,296.6,136.3,296.6z M136.3,241c-9,0-18.1,6.1-18.1,25.6c0,19.1,8.9,25,18.2,25c9,0,18.1-6.1,18.1-25.6
		C154.5,246.8,145.6,241,136.3,241z"/>
	<path class="st0" d="M218.4,238.1c-1.6,2.9-1.9,3.8-2,28.6l-0.1,29.2c0,0-1.8-0.2-4.5-0.2c-3.2,0-4.8,0.2-4.8,0.2l-25.5-47.7
		c-1.4-2.4-2.2-5.9-2.2-5.9v24.4c0,24.1,0.3,24.4,2.1,27.7l0.7,1.4c0,0-1.9-0.2-5.8-0.2c-3.8,0-5.4,0.2-5.4,0.2l0.7-1.4
		c1.6-2.9,2.1-3.8,2.1-28.6c0-24.1-0.3-24.4-2.1-27.7l-0.7-1.4c0,0,1.7,0.2,6.5,0.2c3.9,0,5.6-0.2,5.6-0.2l25.4,47.6
		c1.7,3.1,2.3,5.9,2.3,5.9v-24.4c0-24.1-0.3-24.4-2.1-27.7l-0.7-1.4c0,0,1.9,0.2,5.8,0.2c3.8,0,5.4-0.2,5.4-0.2L218.4,238.1z"/>
	<path class="st0" d="M269.3,256.3l-13.4,39.4c0,0-2.2-0.2-4.5-0.2c-2.2,0-4.5,0.2-4.5,0.2l-13.2-39.4c-3.8-11.4-5.4-16.6-8.5-19.6
		c0,0,2.9,0.2,7.1,0.2c5,0,8-0.2,8-0.2c-1,0.7-2.6,2.2-2.6,5.2c0,2.9,1.8,7.7,3.7,13.8l10,31.8c0.7,2.3,0.9,3.8,0.9,3.8
		s0.3-1.4,1-3.8l9.9-31.8c1.9-6.2,3.7-10.9,3.7-13.8c0-3-1.6-4.5-2.6-5.2c0,0,2.6,0.2,6.9,0.2c4.6,0,6.9-0.2,6.9-0.2
		C274.9,239.7,273.2,244.8,269.3,256.3z"/>
	<path class="st0" d="M318.1,293.4l-0.2,2.3h-27.7c-4.5,0-6.4,0.1-6.4,0.1l0.7-1.4c1.7-3.1,2.1-3.8,2.1-28.6
		c0-24.1-0.3-24.4-2.1-27.7l-0.7-1.4c0,0,1.8,0.1,6.3,0.1h27c0,0-0.1,1.3-0.1,4c0,3.1,0.2,4.6,0.2,4.8c-0.1-0.1-0.6-0.8-2.9-2.2
		c-2-1.2-5.2-1.8-9.1-1.8h-11.4v22.4h9.4c3.9,0,7.1-0.4,9.1-1.6c2.2-1.3,2.8-2,2.9-2.2c0,0.1-0.2,2.5-0.2,6.2c0,3.6,0.2,5.9,0.2,6.1
		c-0.1-0.1-0.6-0.8-2.9-2.2c-2-1.2-5.2-1.6-9.1-1.6h-9.4v22.5h10.6c10.3,0,11.6-2.4,14.6-6.9C319.1,284,318.7,287,318.1,293.4z"/>
	<path class="st0" d="M367.1,296c-5.4,0-7.3-2.7-11.3-8.6l-6.2-9.4c-5.3-8.2-6.4-9.7-11-9.7c-0.8,0-1.5,0.1-1.5,0.1
		c0,21.1,0.3,22.7,2.1,26l0.7,1.4c0,0-1.8-0.2-6.2-0.2c-4.5,0-6.4,0.2-6.4,0.2l0.7-1.4c1.7-3,2.1-3.8,2.1-28.6
		c0-24.1-0.3-24.4-2.1-27.7l-0.7-1.4c0,0,2.2,0.2,5.4,0.2c2.4,0,6.1-0.2,9-0.2c9,0,21.4,0.7,21.4,14.9c0,5.8-2.6,15.8-18.4,15.6
		c7.2,0.9,9.7,4.9,14.2,12l3.8,6.2c3,4.9,5.3,8.7,8.9,10.1C371.8,295.4,370.7,296,367.1,296z M341.5,241.2c-2.2,0-4.3,0.2-4.3,0.2
		v22.4c0,0,1.8,0.2,5,0.2c0.9,0,3.7-0.2,5-0.3c4.5-0.6,8.3-4.3,8.3-11.3C355.6,242.1,349.3,241.2,341.5,241.2z"/>
	<path class="st0" d="M390.7,296.2c-9.4,0-14-2.6-14-2.6s0.2-1.9,0.2-4.8c0-3.2-0.2-6-0.2-6c3.6,5.1,6.9,8.5,14.1,8.5
		c4.9,0,12.4-0.6,12.4-9.2c0-5.3-2.8-7.7-6.4-10.1l-7.5-5c-5.4-3.7-12.2-7.3-12.2-16.6c0-7.1,4.6-14.1,18.1-14.1
		c8.2,0,12.9,2.4,12.9,2.4s-0.2,1.9-0.2,5c0,3.2,0.2,5.5,0.2,5.5c-3.6-5.1-6.8-8.2-13.3-8.2c-2.8,0-10.9,0.2-10.9,8.5
		c0,5.1,3.5,7.3,8.2,10.5l5.9,4c6.3,4.2,12.2,7.3,12.2,17.2C410.2,292.2,402.4,296.2,390.7,296.2z"/>
	<path class="st0" d="M457.1,295.6c-4.3,0-7.3,0.2-7.3,0.2c1-0.7,2.6-2.2,2.6-5.2c0-2.9-1.6-8.2-3.3-14.2l-1.7-5.5h-18.7l-1.7,5.5
		c-1.8,6.2-3.3,11.3-3.3,14.2c0,3,1.6,4.5,2.6,5.2c0,0-2.6-0.2-6.9-0.2c-4.5,0-6.7,0.2-6.7,0.2c3-2.9,4.6-8.2,8.3-19.6l11-34.5
		c0.3-0.9,0.6-2,0.6-3s-0.4-1.6-0.6-1.8h14c0,0.1-0.5,0.6-0.5,1.8c0,1,0.2,2.1,0.6,3l10.3,34.5c3.3,11.5,4.9,16.6,8,19.6
		C464.4,295.8,461.7,295.6,457.1,295.6z M440,245.5c-0.9-3-1.8-6.2-1.8-6.2l-8.1,26.4H446L440,245.5z"/>
	<path class="st0" d="M502.5,245.5c-0.1-0.1-0.6-0.8-2.9-2.2c-2-1.2-5.2-2-9.1-2h-5.5v25.3c0,24.1,0.3,24.4,2.1,27.7l0.7,1.4
		c0,0-1.8-0.2-6.3-0.2c-4.5,0-6.4,0.2-6.4,0.2l0.7-1.4c1.7-3.1,2.1-3.8,2.1-28.6v-24.5h-5.5c-3.9,0-7.1,0.8-9.1,2
		c-2.2,1.4-2.9,2.1-2.9,2.2c0-0.1,0.2-1.7,0.2-4.8c0-2.7-0.1-4-0.1-4h42c0,0-0.1,1.3-0.1,4C502.3,243.9,502.5,245.3,502.5,245.5z"/>
	<path class="st0" d="M515.8,295.6c-4.5,0-6.4,0.2-6.4,0.2l0.7-1.4c1.7-3.1,2.1-3.8,2.1-28.6c0-24.1-0.3-24.4-2.1-27.7l-0.7-1.4
		c0,0,1.8,0.2,6.3,0.2c4.5,0,6.4-0.2,6.4-0.2l-0.7,1.4c-1.7,3.1-2.1,3.8-2.1,28.6c0,24.1,0.3,24.4,2.1,27.7l0.7,1.4
		C522,295.8,520.3,295.6,515.8,295.6z"/>
	<path class="st0" d="M556.6,296.6c-16.6,0-25.9-11.8-25.9-29c0-5.5,0.2-31.6,26-31.6c16.6,0,25.9,11.8,25.9,29
		C582.6,270.5,582.4,296.6,556.6,296.6z M556.6,241c-9,0-18.1,6.1-18.1,25.6c0,19.1,8.9,25,18.2,25c9,0,18.1-6.1,18.1-25.6
		C574.8,246.8,565.9,241,556.6,241z"/>
	<path class="st0" d="M638.7,238.1c-1.6,2.9-1.9,3.8-2,28.6l-0.1,29.2c0,0-1.8-0.2-4.5-0.2c-3.2,0-4.8,0.2-4.8,0.2l-25.5-47.7
		c-1.4-2.4-2.2-5.9-2.2-5.9v24.4c0,24.1,0.3,24.4,2.1,27.7l0.7,1.4c0,0-1.9-0.2-5.8-0.2c-3.8,0-5.4,0.2-5.4,0.2l0.7-1.4
		c1.6-2.9,2.1-3.8,2.1-28.6c0-24.1-0.3-24.4-2.1-27.7l-0.7-1.4c0,0,1.7,0.2,6.5,0.2c3.9,0,5.6-0.2,5.6-0.2l25.4,47.6
		c1.7,3.1,2.3,5.9,2.3,5.9v-24.4c0-24.1-0.3-24.4-2.1-27.7l-0.7-1.4c0,0,1.9,0.2,5.8,0.2c3.8,0,5.4-0.2,5.4-0.2L638.7,238.1z"/>
	<path class="st0" d="M741.2,256.3l-11.1,39.4c0,0-2.2-0.2-4.8-0.2c-2.8,0-4.9,0.2-4.9,0.2l-13.3-50c-0.5-1.9-0.6-3.2-0.6-3.6
		c-0.1,0.3-0.2,1.6-0.7,3.6l-12.3,50c0,0-2.2-0.2-4.9-0.2c-2.7,0-4.9,0.2-4.9,0.2l-11.2-39.4c-3.3-11.6-4.9-16.6-8-19.6
		c0,0,2.8,0.2,7,0.2c5,0,8-0.2,8-0.2c-1,0.7-2.6,2.2-2.6,5.2c0,2.9,1.4,7.7,3,13.8l8.5,31.8c0.6,2.3,0.8,4.2,0.8,4.2
		s0.3-1.8,0.9-4.2l12.6-50.8c0,0,2.5,0.2,4.8,0.2c2.2,0,4.6-0.2,4.6-0.2l13.5,50.8c0.5,1.9,0.8,4.1,0.8,4.1s0.2-1.9,0.8-4.1
		l8.2-31.8c1.6-6.2,2.9-10.9,2.9-13.8c0-3-1.6-4.5-2.6-5.2c0,0,2.6,0.2,6.9,0.2c4.5,0,6.8-0.2,6.8-0.2
		C746.1,239.7,744.4,244.7,741.2,256.3z"/>
	<path class="st0" d="M762,295.6c-4.5,0-6.4,0.2-6.4,0.2l0.7-1.4c1.7-3.1,2.1-3.8,2.1-28.6c0-24.1-0.3-24.4-2.1-27.7l-0.7-1.4
		c0,0,1.8,0.2,6.3,0.2c4.5,0,6.4-0.2,6.4-0.2l-0.7,1.4c-1.7,3.1-2.1,3.8-2.1,28.6c0,24.1,0.3,24.4,2.1,27.7l0.7,1.4
		C768.3,295.8,766.5,295.6,762,295.6z"/>
	<path class="st0" d="M817.4,245.5c-0.1-0.1-0.6-0.8-2.9-2.2c-2-1.2-5.2-2-9.1-2h-5.5v25.3c0,24.1,0.3,24.4,2.1,27.7l0.7,1.4
		c0,0-1.8-0.2-6.3-0.2s-6.4,0.2-6.4,0.2l0.7-1.4c1.7-3.1,2.1-3.8,2.1-28.6v-24.5h-5.5c-3.9,0-7.1,0.8-9.1,2
		c-2.2,1.4-2.9,2.1-2.9,2.2c0-0.1,0.2-1.7,0.2-4.8c0-2.7-0.1-4-0.1-4h42c0,0-0.1,1.3-0.1,4C817.2,243.9,817.4,245.3,817.4,245.5z"/>
	<path class="st0" d="M866.4,295.6c-4.5,0-6.4,0.2-6.4,0.2l0.7-1.4c1.6-3,2.1-3.9,2.1-26.4h-28.7c0,22.6,0.3,23.1,2.1,26.4l0.7,1.4
		c0,0-1.8-0.2-6.3-0.2s-6.4,0.2-6.4,0.2l0.7-1.4c1.7-3.1,2.1-3.8,2.1-28.6c0-24.1-0.3-24.4-2.1-27.7l-0.7-1.4c0,0,1.8,0.2,6.3,0.2
		c4.5,0,6.4-0.2,6.4-0.2l-0.7,1.4c-1.6,2.9-2.1,3.8-2.1,24.4h28.7c0-20.4-0.4-21.2-2.1-24.4l-0.7-1.4c0,0,1.8,0.2,6.3,0.2
		s6.4-0.2,6.4-0.2l-0.7,1.4c-1.7,3.1-2.1,3.8-2.1,28.6c0,24.1,0.3,24.4,2.1,27.7l0.7,1.4C872.7,295.8,870.8,295.6,866.4,295.6z"/>
	<path class="st0" d="M116,382c-9.4,0-14-2.6-14-2.6s0.2-1.9,0.2-4.8c0-3.2-0.2-6-0.2-6c3.6,5.1,6.9,8.5,14.1,8.5
		c4.9,0,12.4-0.6,12.4-9.2c0-5.3-2.8-7.7-6.4-10.1l-7.5-5c-5.4-3.7-12.2-7.3-12.2-16.6c0-7.1,4.6-14.1,18.1-14.1
		c8.2,0,12.9,2.4,12.9,2.4s-0.2,1.9-0.2,5c0,3.2,0.2,5.5,0.2,5.5c-3.6-5.1-6.8-8.2-13.3-8.2c-2.8,0-10.9,0.2-10.9,8.5
		c0,5.1,3.5,7.3,8.2,10.5l5.9,4c6.3,4.2,12.2,7.3,12.2,17.2C135.5,378,127.6,382,116,382z"/>
	<path class="st0" d="M182.5,331.3c-0.1-0.1-0.6-0.8-2.9-2.2c-2-1.2-5.2-2-9.1-2H165v25.3c0,24.1,0.3,24.4,2.1,27.7l0.7,1.4
		c0,0-1.8-0.2-6.3-0.2s-6.4,0.2-6.4,0.2l0.7-1.4c1.7-3.1,2.1-3.8,2.1-28.6v-24.5h-5.5c-3.9,0-7.1,0.8-9.1,2
		c-2.2,1.4-2.9,2.1-2.9,2.2c0-0.1,0.2-1.7,0.2-4.8c0-2.7-0.1-4-0.1-4h42c0,0-0.1,1.3-0.1,4C182.2,329.7,182.5,331.1,182.5,331.3z"/>
	<path class="st0" d="M223.6,379.1l-0.2,2.3h-27.7c-4.5,0-6.4,0.1-6.4,0.1l0.7-1.4c1.7-3.1,2.1-3.8,2.1-28.6
		c0-24.1-0.3-24.4-2.1-27.7l-0.7-1.4c0,0,1.8,0.1,6.3,0.1h27c0,0-0.1,1.3-0.1,4c0,3.1,0.2,4.6,0.2,4.8c-0.1-0.1-0.6-0.8-2.9-2.2
		c-2-1.2-5.2-1.8-9.1-1.8h-11.4v22.4h9.4c3.9,0,7.1-0.4,9.1-1.6c2.2-1.3,2.8-2,2.9-2.2c0,0.1-0.2,2.5-0.2,6.2c0,3.6,0.2,5.9,0.2,6.1
		c-0.1-0.1-0.6-0.8-2.9-2.2c-2-1.2-5.2-1.6-9.1-1.6h-9.4V377h10.6c10.3,0,11.6-2.4,14.6-6.9C224.5,369.8,224.1,372.8,223.6,379.1z"
		/>
	<path class="st0" d="M263.2,379.1l-0.2,2.3h-23.7c-4.5,0-6.4,0.1-6.4,0.1l0.7-1.4c1.7-3.1,2.1-3.8,2.1-28.6
		c0-24.1-0.3-24.4-2.1-27.7l-0.7-1.4c0,0,1.8,0.2,6.3,0.2c4.5,0,6.5-0.2,6.5-0.2l-0.7,1.4c-1.7,3.1-2.1,3.8-2.1,28.6v24.4h6.6
		c10.3,0,11.6-2.4,14.6-6.9C264,369.8,263.6,372.8,263.2,379.1z"/>
	<path class="st0" d="M301.4,379.1l-0.2,2.3h-23.7c-4.5,0-6.4,0.1-6.4,0.1l0.7-1.4c1.7-3.1,2.1-3.8,2.1-28.6
		c0-24.1-0.3-24.4-2.1-27.7l-0.7-1.4c0,0,1.8,0.2,6.3,0.2c4.5,0,6.5-0.2,6.5-0.2l-0.7,1.4c-1.7,3.1-2.1,3.8-2.1,28.6v24.4h6.6
		c10.3,0,11.6-2.4,14.6-6.9C302.3,369.8,301.9,372.8,301.4,379.1z"/>
	<path class="st0" d="M350.3,381.3c-4.3,0-7.3,0.2-7.3,0.2c1-0.7,2.6-2.2,2.6-5.2c0-2.9-1.6-8.2-3.3-14.2l-1.7-5.5h-18.7l-1.7,5.5
		c-1.8,6.2-3.3,11.3-3.3,14.2c0,3,1.6,4.5,2.6,5.2c0,0-2.6-0.2-6.9-0.2c-4.5,0-6.7,0.2-6.7,0.2c3-2.9,4.6-8.2,8.3-19.6l11-34.5
		c0.3-0.9,0.6-2,0.6-3s-0.4-1.6-0.6-1.8h14c0,0.1-0.5,0.6-0.5,1.8c0,1,0.2,2.1,0.6,3l10.3,34.5c3.3,11.5,4.9,16.6,8,19.6
		C357.7,381.5,354.9,381.3,350.3,381.3z M333.3,331.3c-0.9-3-1.8-6.2-1.8-6.2l-8.1,26.4h15.8L333.3,331.3z"/>
	<path class="st0" d="M423,381.8c-5.4,0-7.3-2.7-11.3-8.6l-6.2-9.4c-5.3-8.2-6.4-9.7-11-9.7c-0.8,0-1.5,0.1-1.5,0.1
		c0,21.1,0.3,22.7,2.1,26l0.7,1.4c0,0-1.8-0.2-6.2-0.2c-4.5,0-6.4,0.2-6.4,0.2l0.7-1.4c1.7-3,2.1-3.8,2.1-28.6
		c0-24.1-0.3-24.4-2.1-27.7l-0.7-1.4c0,0,2.2,0.2,5.4,0.2c2.4,0,6.1-0.2,9-0.2c9,0,21.4,0.7,21.4,14.9c0,5.8-2.6,15.8-18.4,15.6
		c7.2,0.9,9.7,4.9,14.2,12l3.8,6.2c3,4.9,5.3,8.7,8.9,10.1C427.7,381.2,426.5,381.8,423,381.8z M397.4,326.9c-2.2,0-4.3,0.2-4.3,0.2
		v22.4c0,0,1.8,0.2,5,0.2c0.9,0,3.7-0.2,5-0.3c4.5-0.6,8.3-4.3,8.3-11.3C411.5,327.9,405.2,326.9,397.4,326.9z"/>
	<path class="st0" d="M474.8,381.3c-4.3,0-7.3,0.2-7.3,0.2c1-0.7,2.6-2.2,2.6-5.2c0-2.9-1.6-8.2-3.3-14.2l-1.7-5.5h-18.7l-1.7,5.5
		c-1.8,6.2-3.3,11.3-3.3,14.2c0,3,1.6,4.5,2.6,5.2c0,0-2.6-0.2-6.9-0.2c-4.5,0-6.7,0.2-6.7,0.2c3-2.9,4.6-8.2,8.3-19.6l11-34.5
		c0.3-0.9,0.6-2,0.6-3s-0.4-1.6-0.6-1.8h14c0,0.1-0.5,0.6-0.5,1.8c0,1,0.2,2.1,0.6,3L474,362c3.3,11.5,4.9,16.6,8,19.6
		C482,381.5,479.3,381.3,474.8,381.3z M457.8,331.3c-0.9-3-1.8-6.2-1.8-6.2l-8.1,26.4h15.8L457.8,331.3z"/>
	<path class="st0" d="M523.1,379.1l-0.2,2.3h-27.7c-4.5,0-6.4,0.1-6.4,0.1l0.7-1.4c1.7-3.1,2.1-3.8,2.1-28.6
		c0-24.1-0.3-24.4-2.1-27.7l-0.7-1.4c0,0,1.8,0.1,6.3,0.1h27c0,0-0.1,1.3-0.1,4c0,3.1,0.2,4.6,0.2,4.8c-0.1-0.1-0.6-0.8-2.9-2.2
		c-2-1.2-5.2-1.8-9.1-1.8h-11.4v22.4h9.4c3.9,0,7.1-0.4,9.1-1.6c2.2-1.3,2.8-2,2.9-2.2c0,0.1-0.2,2.5-0.2,6.2c0,3.6,0.2,5.9,0.2,6.1
		c-0.1-0.1-0.6-0.8-2.9-2.2c-2-1.2-5.2-1.6-9.1-1.6h-9.4V377h10.6c10.3,0,11.6-2.4,14.6-6.9C523.9,369.8,523.5,372.8,523.1,379.1z"
		/>
	<path class="st0" d="M583.5,379.9c-3.8,1.6-7.1,1.7-14.3,1.7c-2.8,0-5.5-0.2-8.4-0.2c-4.5,0-6.4,0.2-6.4,0.2l0.7-1.4
		c1.7-3,2.1-3.8,2.1-28.6c0-24.1-0.3-24.4-2.1-27.7l-0.7-1.4c0,0,2.2,0.2,5.4,0.2c2.4,0,5.8-0.2,8.2-0.2c11.8,0,22.4,1.3,22.4,14.3
		c0,8.6-5.4,13.1-12.2,14.4c5.6,0,14.3,3,14.3,14.2C592.6,373.7,587.9,378.1,583.5,379.9z M569,326.9c-2.2,0-4.7,0.2-4.7,0.2v22.1
		c0,0,1.9,0.2,5.1,0.2c0.9,0,3.3-0.2,4.8-0.3c4.5-0.6,8.5-4.4,8.5-11.6C582.8,327.8,575.8,326.9,569,326.9z M569.6,353.9
		c-2.6,0-5.3,0.2-5.3,0.2v22.8c0,0,1.3,0.2,5.8,0.2c4.4,0,7.4-0.5,8.9-1.3c2-0.9,5.9-2.9,5.9-10.8
		C584.8,355.5,578,353.9,569.6,353.9z"/>
	<path class="st0" d="M607.6,381.3c-4.5,0-6.4,0.2-6.4,0.2l0.7-1.4c1.7-3.1,2.1-3.8,2.1-28.6c0-24.1-0.3-24.4-2.1-27.7l-0.7-1.4
		c0,0,1.8,0.2,6.3,0.2s6.4-0.2,6.4-0.2l-0.7,1.4c-1.7,3.1-2.1,3.8-2.1,28.6c0,24.1,0.3,24.4,2.1,27.7l0.7,1.4
		C613.9,381.5,612.1,381.3,607.6,381.3z"/>
	<path class="st0" d="M671.2,323.9c-1.6,2.9-1.9,3.8-2,28.6l-0.1,29.2c0,0-1.8-0.2-4.5-0.2c-3.2,0-4.8,0.2-4.8,0.2l-25.5-47.7
		c-1.4-2.4-2.2-5.9-2.2-5.9v24.4c0,24.1,0.3,24.4,2.1,27.7l0.7,1.4c0,0-1.9-0.2-5.8-0.2c-3.8,0-5.4,0.2-5.4,0.2l0.7-1.4
		c1.6-2.9,2.1-3.8,2.1-28.6c0-24.1-0.3-24.4-2.1-27.7l-0.7-1.4c0,0,1.7,0.2,6.5,0.2c3.9,0,5.6-0.2,5.6-0.2l25.4,47.6
		c1.7,3.1,2.3,5.9,2.3,5.9v-24.4c0-24.1-0.3-24.4-2.1-27.7l-0.7-1.4c0,0,1.9,0.2,5.8,0.2c3.8,0,5.4-0.2,5.4-0.2L671.2,323.9z"/>
	<path class="st0" d="M687.9,381.3c-4.5,0-6.4,0.2-6.4,0.2l0.7-1.4c1.7-3.1,2.1-3.8,2.1-28.6c0-24.1-0.3-24.4-2.1-27.7l-0.7-1.4
		c0,0,1.8,0.2,6.3,0.2s6.4-0.2,6.4-0.2l-0.7,1.4c-1.7,3.1-2.1,3.8-2.1,28.6c0,24.1,0.3,24.4,2.1,27.7l0.7,1.4
		C694.2,381.5,692.4,381.3,687.9,381.3z"/>
	<path class="st0" d="M728.7,382.4c-16.6,0-25.9-11.8-25.9-29c0-5.5,0.2-31.6,26-31.6c16.6,0,25.9,11.8,25.9,29
		C754.8,356.3,754.6,382.4,728.7,382.4z M728.7,326.8c-9,0-18.1,6.1-18.1,25.6c0,19.1,8.9,25,18.2,25c9,0,18.1-6.1,18.1-25.6
		C746.9,332.6,738,326.8,728.7,326.8z"/>
	<path class="st0" d="M810.8,323.9c-1.6,2.9-1.9,3.8-2,28.6l-0.1,29.2c0,0-1.8-0.2-4.5-0.2c-3.2,0-4.8,0.2-4.8,0.2l-25.5-47.7
		c-1.4-2.4-2.2-5.9-2.2-5.9v24.4c0,24.1,0.3,24.4,2.1,27.7l0.7,1.4c0,0-1.9-0.2-5.8-0.2c-3.8,0-5.4,0.2-5.4,0.2l0.7-1.4
		c1.6-2.9,2.1-3.8,2.1-28.6c0-24.1-0.3-24.4-2.1-27.7l-0.7-1.4c0,0,1.7,0.2,6.5,0.2c3.9,0,5.6-0.2,5.6-0.2l25.4,47.6
		c1.7,3.1,2.3,5.9,2.3,5.9v-24.4c0-24.1-0.3-24.4-2.1-27.7l-0.7-1.4c0,0,1.9,0.2,5.8,0.2c3.8,0,5.4-0.2,5.4-0.2L810.8,323.9z"/>
</g>
</svg>
