<?xml version="1.0" encoding="utf-8"?>
<!-- Generator: Adobe Illustrator 28.3.0, SVG Export Plug-In . SVG Version: 6.00 Build 0)  -->
<svg version="1.1" id="Layer_1" xmlns="http://www.w3.org/2000/svg" xmlns:xlink="http://www.w3.org/1999/xlink" x="0px" y="0px"
	 viewBox="0 0 830.1 63.9" style="enable-background:new 0 0 830.1 63.9;" xml:space="preserve">
<style type="text/css">
	.st0{fill:#FFFFFF;}
</style>
<g>
	<path class="st0" d="M44.8,61.8c-4.1,0-7,0.2-7,0.2c1-0.7,2.5-2.1,2.5-5c0-2.8-1.5-7.8-3.2-13.6L35.6,38H17.7l-1.6,5.3
		c-1.7,5.9-3.2,10.8-3.2,13.6c0,2.9,1.5,4.3,2.5,5c0,0-2.5-0.2-6.6-0.2c-4.3,0-6.4,0.2-6.4,0.2c2.9-2.8,4.4-7.8,7.9-18.7l10.5-33
		c0.3-0.9,0.6-1.9,0.6-2.9s-0.4-1.5-0.6-1.7h13.4c0,0.1-0.5,0.6-0.5,1.7c0,1,0.2,2,0.6,2.9l9.8,33c3.2,11,4.7,15.9,7.6,18.7
		C51.8,61.9,49.2,61.8,44.8,61.8z M28.5,14c-0.9-2.9-1.7-5.9-1.7-5.9l-7.7,25.2h15.1L28.5,14z"/>
	<path class="st0" d="M87.1,59.6L87,61.8H64.3c-4.3,0-6.1,0.1-6.1,0.1l0.7-1.3c1.6-3,2-3.6,2-27.3c0-23-0.3-23.3-2-26.5l-0.7-1.3
		c0,0,1.7,0.2,6,0.2c4.3,0,6.2-0.2,6.2-0.2l-0.7,1.3c-1.6,3-2,3.6-2,27.3v23.3H74c9.8,0,11.1-2.3,14-6.6
		C88,50.8,87.6,53.5,87.1,59.6z"/>
	<path class="st0" d="M127.4,59.6l-0.2,2.2h-26.5c-4.3,0-6.1,0.1-6.1,0.1l0.7-1.3c1.6-3,2-3.6,2-27.3c0-23-0.3-23.3-2-26.5l-0.7-1.3
		c0,0,1.7,0.1,6,0.1h25.8c0,0-0.1,1.2-0.1,3.8c0,3,0.2,4.4,0.2,4.6c-0.1-0.1-0.6-0.8-2.8-2.1c-1.9-1.1-5-1.7-8.7-1.7h-10.9v21.4h9
		c3.7,0,6.8-0.4,8.7-1.5c2.1-1.2,2.7-1.9,2.8-2.1c0,0.1-0.2,2.4-0.2,5.9c0,3.4,0.2,5.6,0.2,5.8c-0.1-0.1-0.6-0.8-2.8-2.1
		c-1.9-1.1-5-1.5-8.7-1.5h-9v21.5h10.1c9.8,0,11.1-2.3,14-6.6C128.3,50.8,127.9,53.5,127.4,59.6z"/>
	<path class="st0" d="M175,61.8c-5.9,0-7.8,0.2-7.8,0.2c1.3-1.1,1.8-2.5,1.8-3.7c0-2.2-0.4-3.2-5-10.4l-7.2-11.3l-6.5,11.3
		c-4.2,7.4-4.6,8.2-4.6,10.4c0,1.3,0.6,2.6,1.8,3.7c0,0-3-0.2-6.9-0.2c-5.1,0-7.4,0.2-7.4,0.2c3.3-2.4,4.1-3.2,12-15.8l8.8-13.9
		l-7-10.9c-8-12.6-8.7-13.4-12-15.8c0,0,2.3,0.2,8.1,0.2c5.9,0,7.8-0.2,7.8-0.2c-1.3,1.1-1.8,2.5-1.8,3.7c0,2.2,0.5,3.2,5,10.4
		l4.9,7.8l4.4-7.8c4.2-7.4,4.6-8.2,4.6-10.4c0-1.3-0.6-2.6-1.8-3.7c0,0,3,0.2,6.9,0.2c5.1,0,7.4-0.2,7.4-0.2
		c-3.3,2.4-4.1,3.2-12,15.8l-6.6,10.5l9.1,14.3c8,12.6,8.7,13.4,12,15.8C183,61.9,180.8,61.8,175,61.8z"/>
	<path class="st0" d="M195.3,61.8c-4.3,0-6.1,0.2-6.1,0.2l0.7-1.3c1.6-3,2-3.6,2-27.3c0-23-0.3-23.3-2-26.5l-0.7-1.3
		c0,0,1.7,0.2,6,0.2c4.3,0,6.1-0.2,6.1-0.2l-0.7,1.3c-1.6,3-2,3.6-2,27.3c0,23,0.3,23.3,2,26.5l0.7,1.3
		C201.3,61.9,199.6,61.8,195.3,61.8z"/>
	<path class="st0" d="M223.1,62.4c-9,0-13.4-2.5-13.4-2.5s0.2-1.8,0.2-4.6c0-3.1-0.2-5.7-0.2-5.7c3.4,4.9,6.6,8.1,13.5,8.1
		c4.7,0,11.9-0.6,11.9-8.8c0-5.1-2.7-7.4-6.1-9.7l-7.2-4.8c-5.2-3.5-11.7-7-11.7-15.9c0-6.8,4.4-13.5,17.3-13.5
		c7.8,0,12.3,2.3,12.3,2.3s-0.2,1.8-0.2,4.8c0,3.1,0.2,5.3,0.2,5.3c-3.4-4.9-6.5-7.8-12.7-7.8c-2.7,0-10.4,0.2-10.4,8.1
		c0,4.9,3.3,7,7.8,10l5.6,3.8c6,4,11.7,7,11.7,16.4C241.7,58.5,234.2,62.4,223.1,62.4z"/>
	<path class="st0" d="M285.1,38.9c-2.9,0-5.2-0.3-5.2-0.3c0,17.4,0.3,18.8,2,22l0.7,1.3c0,0-1.7-0.2-6-0.2c-4.3,0-6.1,0.2-6.1,0.2
		l0.7-1.3c1.6-2.9,2-3.6,2-27.3c0-23-0.3-23.3-2-26.5l-0.7-1.3c0,0,2,0.2,5.1,0.2c3.2,0,6.5-0.2,8.8-0.2c7.1,0,20.7,0.6,20.7,16.3
		C305.1,36.6,293.4,38.9,285.1,38.9z M284.3,9.7c-2.6,0-4.4,0.2-4.4,0.2v24.5c0,0,1.3,0.2,5,0.2c12.2,0,12.7-8.4,12.7-13
		C297.6,11.1,290,9.7,284.3,9.7z"/>
	<path class="st0" d="M344.6,61.8c-4.1,0-7,0.2-7,0.2c1-0.7,2.5-2.1,2.5-5c0-2.8-1.5-7.8-3.2-13.6l-1.6-5.3h-17.9l-1.6,5.3
		c-1.7,5.9-3.2,10.8-3.2,13.6c0,2.9,1.5,4.3,2.5,5c0,0-2.5-0.2-6.6-0.2c-4.3,0-6.4,0.2-6.4,0.2c2.9-2.8,4.4-7.8,7.9-18.7l10.5-33
		c0.3-0.9,0.6-1.9,0.6-2.9s-0.4-1.5-0.6-1.7h13.4c0,0.1-0.5,0.6-0.5,1.7c0,1,0.2,2,0.6,2.9l9.8,33c3.2,11,4.7,15.9,7.6,18.7
		C351.5,61.9,348.9,61.8,344.6,61.8z M328.3,14c-0.9-2.9-1.7-5.9-1.7-5.9l-7.7,25.2H334L328.3,14z"/>
	<path class="st0" d="M398.9,6.8c-1.5,2.8-2,3.6-2,23.3v4.7c0,10.3-0.2,14.9-2.3,18.9c-2.8,5.2-7.8,8.9-18.1,8.9
		c-7.8,0-13.8-1.9-17.3-7.1c-2.5-3.6-3.2-7.2-3.2-17.2v-6.1c0-21.2-0.3-22.2-2-25.4l-0.7-1.3c0,0,1.8,0.2,6.1,0.2s6.1-0.2,6.1-0.2
		l-0.7,1.3c-1.5,2.8-2,3.6-2,23.3v11c0,2.5,0.2,5.7,0.7,7.5c1.6,6.2,6,9.3,13.4,9.3c7.2,0,11.9-3,13.5-9.6c0.4-1.7,0.6-4.3,0.6-6.6
		v-8.4c0-23-0.3-23.3-2-26.5l-0.7-1.3c0,0,1.3,0.2,5.5,0.2s5.7-0.2,5.7-0.2L398.9,6.8z"/>
	<path class="st0" d="M437.3,59.6l-0.2,2.2h-22.7c-4.3,0-6.1,0.1-6.1,0.1l0.7-1.3c1.6-3,2-3.6,2-27.3c0-23-0.3-23.3-2-26.5l-0.7-1.3
		c0,0,1.7,0.2,6,0.2c4.3,0,6.2-0.2,6.2-0.2l-0.7,1.3c-1.6,3-2,3.6-2,27.3v23.3h6.3c9.8,0,11.1-2.3,14-6.6
		C438.2,50.8,437.8,53.5,437.3,59.6z"/>
	<path class="st0" d="M451,61.8c-4.3,0-6.1,0.2-6.1,0.2l0.7-1.3c1.6-3,2-3.6,2-27.3c0-23-0.3-23.3-2-26.5l-0.7-1.3
		c0,0,1.7,0.2,6,0.2c4.3,0,6.1-0.2,6.1-0.2l-0.7,1.3c-1.6,3-2,3.6-2,27.3c0,23,0.3,23.3,2,26.5l0.7,1.3
		C457,61.9,455.3,61.8,451,61.8z"/>
	<path class="st0" d="M511.8,6.8c-1.5,2.8-1.8,3.6-1.9,27.3L509.8,62c0,0-1.7-0.2-4.3-0.2c-3.1,0-4.6,0.2-4.6,0.2l-24.4-45.6
		c-1.3-2.3-2.1-5.6-2.1-5.6v23.3c0,23,0.3,23.3,2,26.5l0.7,1.3c0,0-1.8-0.2-5.5-0.2c-3.6,0-5.2,0.2-5.2,0.2l0.7-1.3
		c1.5-2.8,2-3.6,2-27.3c0-23-0.3-23.3-2-26.5l-0.7-1.3c0,0,1.6,0.2,6.2,0.2c3.7,0,5.4-0.2,5.4-0.2l24.3,45.5c1.6,3,2.2,5.6,2.2,5.6
		V33.3c0-23-0.3-23.3-2-26.5l-0.7-1.3c0,0,1.8,0.2,5.5,0.2c3.6,0,5.2-0.2,5.2-0.2L511.8,6.8z"/>
	<path class="st0" d="M554.4,59.6l-0.2,2.2h-26.5c-4.3,0-6.1,0.1-6.1,0.1l0.7-1.3c1.6-3,2-3.6,2-27.3c0-23-0.3-23.3-2-26.5l-0.7-1.3
		c0,0,1.7,0.1,6,0.1h25.8c0,0-0.1,1.2-0.1,3.8c0,3,0.2,4.4,0.2,4.6c-0.1-0.1-0.6-0.8-2.8-2.1c-1.9-1.1-5-1.7-8.7-1.7h-10.9v21.4h9
		c3.7,0,6.8-0.4,8.7-1.5c2.1-1.2,2.7-1.9,2.8-2.1c0,0.1-0.2,2.4-0.2,5.9c0,3.4,0.2,5.6,0.2,5.8c-0.1-0.1-0.6-0.8-2.8-2.1
		c-1.9-1.1-5-1.5-8.7-1.5h-9v21.5h10.1c9.8,0,11.1-2.3,14-6.6C555.3,50.8,554.9,53.5,554.4,59.6z"/>
	<path class="st0" d="M628.1,37c-1.5,2.8-2,4-2,22.6v0.5c0,0-5.2,2.3-14.3,2.3c-27.4,0-28.9-20.1-28.9-28.1
		C583,15.8,593.8,5,612.3,5c10.2,0,14.3,2.3,14.3,2.3s-0.2,1.8-0.2,4.8c0,3.1,0.2,5.3,0.2,5.3c-3.5-4.9-6.6-7.8-14.6-7.8
		c-7.8,0-21.7,2.3-21.7,24.4c0,13,4.2,23.7,21.4,23.7c5.1,0,7.7-0.6,7.7-0.6c0-14.7-0.4-17.3-2-20.1l-0.8-1.3c0,0,1.7,0.2,6,0.2
		c4.3,0,6.1-0.2,6.1-0.2L628.1,37z"/>
	<path class="st0" d="M681.8,6.8c-1.5,2.8-2,3.6-2,23.3v4.7c0,10.3-0.2,14.9-2.3,18.9c-2.8,5.2-7.8,8.9-18.1,8.9
		c-7.8,0-13.8-1.9-17.3-7.1c-2.5-3.6-3.2-7.2-3.2-17.2v-6.1c0-21.2-0.3-22.2-2-25.4l-0.7-1.3c0,0,1.8,0.2,6.1,0.2
		c4.3,0,6.1-0.2,6.1-0.2l-0.7,1.3c-1.5,2.8-2,3.6-2,23.3v11c0,2.5,0.2,5.7,0.7,7.5c1.6,6.2,6,9.3,13.4,9.3c7.2,0,11.9-3,13.5-9.6
		c0.4-1.7,0.6-4.3,0.6-6.6v-8.4c0-23-0.3-23.3-2-26.5l-0.7-1.3c0,0,1.3,0.2,5.5,0.2c4.3,0,5.7-0.2,5.7-0.2L681.8,6.8z"/>
	<path class="st0" d="M737.6,61.8c-4.3,0-6.1,0.2-6.1,0.2l0.8-1.3c1.7-2.8,2-3.6,2-27.3V8.1c0,0-0.7,3.2-1.5,5.1l-16.1,38.6
		L701,13.5c-0.8-1.8-1.7-5.2-1.7-5.2l-0.1,25.8c-0.1,23,0.4,23.3,2.1,26.5l0.7,1.3c0,0-1.9-0.2-5.5-0.2s-5.1,0.2-5.1,0.2l0.7-1.3
		c1.5-2.9,1.9-3.6,1.9-27.3c0-23-0.2-23.3-1.9-26.5l-0.7-1.3c0,0,3.2,0.2,7,0.2c3.6,0,6.2-0.2,6.2-0.2L716.7,35
		c0.6,1.5,0.9,2.5,0.9,2.5s0.2-0.7,0.9-2.5l12.4-29.6c0,0,2.7,0.2,6.2,0.2c3.6,0,6.5-0.2,6.5-0.2l-0.7,1.3c-1.6,2.9-2,3.6-2,27.3
		c0,23,0.3,23.3,2,26.5l0.7,1.3C743.5,61.9,741.9,61.8,737.6,61.8z"/>
	<path class="st0" d="M781,60.3c-3.6,1.5-6.8,1.6-13.7,1.6c-2.7,0-5.3-0.2-8-0.2c-4.3,0-6.1,0.2-6.1,0.2l0.7-1.3
		c1.6-2.9,2-3.6,2-27.3c0-23-0.3-23.3-2-26.5l-0.7-1.3c0,0,2.1,0.2,5.2,0.2c2.3,0,5.5-0.2,7.8-0.2c11.3,0,21.4,1.2,21.4,13.7
		c0,8.2-5.2,12.5-11.7,13.8c5.4,0,13.7,2.9,13.7,13.6C789.6,54.5,785.1,58.6,781,60.3z M767.1,9.7c-2.1,0-4.5,0.2-4.5,0.2V31
		c0,0,1.8,0.2,4.9,0.2c0.9,0,3.2-0.2,4.6-0.3c4.3-0.6,8.1-4.2,8.1-11.1C780.2,10.6,773.6,9.7,767.1,9.7z M767.7,35.5
		c-2.5,0-5.1,0.2-5.1,0.2v21.8c0,0,1.2,0.2,5.5,0.2c4.2,0,7.1-0.5,8.5-1.2c1.9-0.9,5.6-2.8,5.6-10.3C782.2,37,775.6,35.5,767.7,35.5
		z"/>
	<path class="st0" d="M810.6,62.4c-9,0-13.4-2.5-13.4-2.5s0.2-1.8,0.2-4.6c0-3.1-0.2-5.7-0.2-5.7c3.4,4.9,6.6,8.1,13.5,8.1
		c4.7,0,11.9-0.6,11.9-8.8c0-5.1-2.7-7.4-6.1-9.7l-7.2-4.8c-5.2-3.5-11.7-7-11.7-15.9c0-6.8,4.4-13.5,17.3-13.5
		c7.8,0,12.3,2.3,12.3,2.3s-0.2,1.8-0.2,4.8c0,3.1,0.2,5.3,0.2,5.3c-3.4-4.9-6.5-7.8-12.7-7.8c-2.7,0-10.4,0.2-10.4,8.1
		c0,4.9,3.3,7,7.8,10l5.6,3.8c6,4,11.7,7,11.7,16.4C829.2,58.5,821.7,62.4,810.6,62.4z"/>
</g>
</svg>
