<?xml version="1.0" encoding="utf-8"?>
<!-- Generator: Adobe Illustrator 28.3.0, SVG Export Plug-In . SVG Version: 6.00 Build 0)  -->
<svg version="1.1" id="Layer_1" xmlns="http://www.w3.org/2000/svg" xmlns:xlink="http://www.w3.org/1999/xlink" x="0px" y="0px"
	 viewBox="0 0 605.2 63.9" style="enable-background:new 0 0 605.2 63.9;" xml:space="preserve">
<style type="text/css">
	.st0{fill:#FFFFFF;}
</style>
<g>
	<path class="st0" d="M19.2,62.1c-3.4,0-5.9-0.2-9.1-0.2c-4.3,0-6.3,0.2-6.3,0.2l0.7-1.3c1.6-2.9,2-3.6,2-27.3c0-23-0.3-23.3-2-26.5
		L3.8,5.5c0,0,2.1,0.2,6.3,0.2c3.2,0,7-0.2,10.4-0.2c7.2,0,29.3,0.6,29.3,27C49.9,61.5,28.7,62.1,19.2,62.1z M19.1,10
		c-3.2,0-5.8,0.2-5.8,0.2v47.3c0,0,2.9,0.2,5.5,0.2c10.2,0,23.6-1.2,23.6-24.1C42.4,11.9,30,10,19.1,10z"/>
	<path class="st0" d="M92.8,61.9c-4.1,0-7,0.2-7,0.2c1-0.7,2.5-2.1,2.5-5c0-2.8-1.5-7.8-3.2-13.6l-1.6-5.3H65.7l-1.6,5.3
		c-1.7,5.9-3.2,10.8-3.2,13.6c0,2.9,1.5,4.3,2.5,5c0,0-2.5-0.2-6.6-0.2c-4.3,0-6.4,0.2-6.4,0.2c2.9-2.8,4.4-7.8,7.9-18.7l10.5-33
		c0.3-0.9,0.6-1.9,0.6-2.9S69.1,5.9,69,5.7h13.4c0,0.1-0.5,0.6-0.5,1.7c0,1,0.2,2,0.6,2.9l9.8,33c3.2,11,4.7,15.9,7.6,18.7
		C99.8,62,97.2,61.9,92.8,61.9z M76.6,14.1c-0.9-2.9-1.7-5.9-1.7-5.9l-7.7,25.2h15.1L76.6,14.1z"/>
	<path class="st0" d="M144.2,62.2c-5.2,0-7-2.6-10.8-8.2l-5.9-9c-5.1-7.8-6.1-9.3-10.5-9.3c-0.8,0-1.4,0.1-1.4,0.1
		c0,20.2,0.3,21.7,2,24.9l0.7,1.3c0,0-1.7-0.2-5.9-0.2c-4.3,0-6.1,0.2-6.1,0.2l0.7-1.3c1.6-2.9,2-3.6,2-27.3c0-23-0.3-23.3-2-26.5
		l-0.7-1.3c0,0,2.1,0.2,5.2,0.2c2.3,0,5.8-0.2,8.6-0.2c8.6,0,20.5,0.7,20.5,14.2c0,5.5-2.5,15.1-17.6,14.9
		c6.9,0.9,9.3,4.7,13.6,11.5l3.6,5.9c2.9,4.7,5.1,8.3,8.5,9.7C148.6,61.7,147.5,62.2,144.2,62.2z M119.6,9.8c-2.1,0-4.1,0.2-4.1,0.2
		v21.4c0,0,1.7,0.2,4.8,0.2c0.9,0,3.5-0.2,4.8-0.3c4.3-0.6,7.9-4.1,7.9-10.8C133.1,10.8,127.1,9.8,119.6,9.8z"/>
	<path class="st0" d="M160.5,61.9c-4.3,0-6.1,0.2-6.1,0.2l0.7-1.3c1.6-3,2-3.6,2-27.3c0-23-0.3-23.3-2-26.5l-0.7-1.3
		c0,0,1.7,0.2,6,0.2s6.1-0.2,6.1-0.2l-0.7,1.3c-1.6,3-2,3.6-2,27.3c0,23,0.3,23.3,2,26.5l0.7,1.3C166.5,62,164.7,61.9,160.5,61.9z"
		/>
	<path class="st0" d="M214.8,61.9c-4.1,0-7,0.2-7,0.2c1-0.7,2.5-2.1,2.5-5c0-2.8-1.5-7.8-3.2-13.6l-1.6-5.3h-17.9l-1.6,5.3
		c-1.7,5.9-3.2,10.8-3.2,13.6c0,2.9,1.5,4.3,2.5,5c0,0-2.5-0.2-6.6-0.2c-4.3,0-6.4,0.2-6.4,0.2c2.9-2.8,4.4-7.8,7.9-18.7l10.5-33
		c0.3-0.9,0.6-1.9,0.6-2.9s-0.4-1.5-0.6-1.7h13.4c0,0.1-0.5,0.6-0.5,1.7c0,1,0.2,2,0.6,2.9l9.8,33c3.2,11,4.7,15.9,7.6,18.7
		C221.7,62,219.1,61.9,214.8,61.9z M198.5,14.1c-0.9-2.9-1.7-5.9-1.7-5.9l-7.7,25.2h15.1L198.5,14.1z"/>
	<path class="st0" d="M258.2,62.5c-9,0-13.4-2.5-13.4-2.5s0.2-1.8,0.2-4.6c0-3.1-0.2-5.7-0.2-5.7c3.4,4.9,6.6,8.1,13.5,8.1
		c4.7,0,11.9-0.6,11.9-8.8c0-5.1-2.7-7.4-6.1-9.7l-7.2-4.8c-5.2-3.5-11.7-7-11.7-15.9c0-6.8,4.4-13.5,17.3-13.5
		c7.8,0,12.3,2.3,12.3,2.3s-0.2,1.8-0.2,4.8c0,3.1,0.2,5.3,0.2,5.3c-3.4-4.9-6.5-7.8-12.7-7.8c-2.7,0-10.4,0.2-10.4,8.1
		c0,4.9,3.3,7,7.8,10l5.6,3.8c6,4,11.7,7,11.7,16.4C276.8,58.6,269.3,62.5,258.2,62.5z"/>
	<path class="st0" d="M290,62.9c-3.4-0.6-5.3-2.6-5.3-5.4c0-2.8,2.2-5,5.2-5.5c3.4,0.6,5.3,2.6,5.3,5.4
		C295.2,60.3,293,62.4,290,62.9z"/>
	<path class="st0" d="M364.2,61.9c-4.3,0-6.1,0.2-6.1,0.2l0.7-1.3c1.5-2.9,2-3.7,2-25.2h-27.4c0,21.6,0.3,22.1,2,25.2L336,62
		c0,0-1.7-0.2-6-0.2c-4.3,0-6.1,0.2-6.1,0.2l0.7-1.3c1.6-3,2-3.6,2-27.3c0-23-0.3-23.3-2-26.5l-0.7-1.3c0,0,1.7,0.2,6,0.2
		s6.1-0.2,6.1-0.2l-0.7,1.3c-1.5,2.8-2,3.6-2,23.3h27.4c0-19.5-0.4-20.3-2-23.3l-0.7-1.3c0,0,1.7,0.2,6,0.2c4.3,0,6.1-0.2,6.1-0.2
		l-0.7,1.3c-1.6,3-2,3.6-2,27.3c0,23,0.3,23.3,2,26.5l0.7,1.3C370.2,62,368.4,61.9,364.2,61.9z"/>
	<path class="st0" d="M418.6,61.9c-4.1,0-7,0.2-7,0.2c1-0.7,2.5-2.1,2.5-5c0-2.8-1.5-7.8-3.2-13.6l-1.6-5.3h-17.9l-1.6,5.3
		c-1.7,5.9-3.2,10.8-3.2,13.6c0,2.9,1.5,4.3,2.5,5c0,0-2.5-0.2-6.6-0.2c-4.3,0-6.4,0.2-6.4,0.2c2.9-2.8,4.4-7.8,7.9-18.7l10.5-33
		c0.3-0.9,0.6-1.9,0.6-2.9s-0.4-1.5-0.6-1.7h13.4c0,0.1-0.5,0.6-0.5,1.7c0,1,0.2,2,0.6,2.9l9.8,33c3.2,11,4.7,15.9,7.6,18.7
		C425.6,62,422.9,61.9,418.6,61.9z M402.3,14.1c-0.9-2.9-1.7-5.9-1.7-5.9l-7.7,25.2H408L402.3,14.1z"/>
	<path class="st0" d="M469.9,62.2c-5.2,0-7-2.6-10.8-8.2l-5.9-9c-5.1-7.8-6.1-9.3-10.5-9.3c-0.8,0-1.4,0.1-1.4,0.1
		c0,20.2,0.3,21.7,2,24.9L444,62c0,0-1.7-0.2-5.9-0.2s-6.1,0.2-6.1,0.2l0.7-1.3c1.6-2.9,2-3.6,2-27.3c0-23-0.3-23.3-2-26.5l-0.7-1.3
		c0,0,2.1,0.2,5.2,0.2c2.3,0,5.8-0.2,8.6-0.2c8.6,0,20.5,0.7,20.5,14.2c0,5.5-2.5,15.1-17.6,14.9c6.9,0.9,9.3,4.7,13.6,11.5l3.6,5.9
		c2.9,4.7,5.1,8.3,8.5,9.7C474.3,61.7,473.2,62.2,469.9,62.2z M445.4,9.8c-2.1,0-4.1,0.2-4.1,0.2v21.4c0,0,1.7,0.2,4.8,0.2
		c0.9,0,3.5-0.2,4.8-0.3c4.3-0.6,7.9-4.1,7.9-10.8C458.8,10.8,452.8,9.8,445.4,9.8z"/>
	<path class="st0" d="M494.7,39c-2.9,0-5.2-0.3-5.2-0.3c0,17.4,0.3,18.8,2,22l0.7,1.3c0,0-1.7-0.2-6-0.2s-6.1,0.2-6.1,0.2l0.7-1.3
		c1.6-2.9,2-3.6,2-27.3c0-23-0.3-23.3-2-26.5l-0.7-1.3c0,0,2,0.2,5.1,0.2c3.2,0,6.5-0.2,8.8-0.2c7.1,0,20.7,0.6,20.7,16.3
		C514.7,36.7,503.1,39,494.7,39z M494,9.8c-2.6,0-4.4,0.2-4.4,0.2v24.5c0,0,1.3,0.2,5,0.2c12.2,0,12.7-8.4,12.7-13
		C507.2,11.2,499.7,9.8,494,9.8z"/>
	<path class="st0" d="M553.5,59.7l-0.2,2.2h-26.5c-4.3,0-6.1,0.1-6.1,0.1l0.7-1.3c1.6-3,2-3.6,2-27.3c0-23-0.3-23.3-2-26.5l-0.7-1.3
		c0,0,1.7,0.1,6,0.1h25.8c0,0-0.1,1.2-0.1,3.8c0,3,0.2,4.4,0.2,4.6c-0.1-0.1-0.6-0.8-2.8-2.1c-1.9-1.1-5-1.7-8.7-1.7h-10.9v21.4h9
		c3.7,0,6.8-0.4,8.7-1.5c2.1-1.2,2.7-1.9,2.8-2.1c0,0.1-0.2,2.4-0.2,5.9c0,3.4,0.2,5.6,0.2,5.8c-0.1-0.1-0.6-0.8-2.8-2.1
		c-1.9-1.1-5-1.5-8.7-1.5h-9v21.5h10.1c9.8,0,11.1-2.3,14-6.6C554.4,50.9,554,53.6,553.5,59.7z"/>
	<path class="st0" d="M600.4,62.2c-5.2,0-7-2.6-10.8-8.2l-5.9-9c-5.1-7.8-6.1-9.3-10.5-9.3c-0.8,0-1.4,0.1-1.4,0.1
		c0,20.2,0.3,21.7,2,24.9l0.7,1.3c0,0-1.7-0.2-5.9-0.2s-6.1,0.2-6.1,0.2l0.7-1.3c1.6-2.9,2-3.6,2-27.3c0-23-0.3-23.3-2-26.5
		l-0.7-1.3c0,0,2.1,0.2,5.2,0.2c2.3,0,5.8-0.2,8.6-0.2c8.6,0,20.5,0.7,20.5,14.2c0,5.5-2.5,15.1-17.6,14.9
		c6.9,0.9,9.3,4.7,13.6,11.5l3.6,5.9c2.9,4.7,5.1,8.3,8.5,9.7C604.8,61.7,603.7,62.2,600.4,62.2z M575.8,9.8c-2.1,0-4.1,0.2-4.1,0.2
		v21.4c0,0,1.7,0.2,4.8,0.2c0.9,0,3.5-0.2,4.8-0.3c4.3-0.6,7.9-4.1,7.9-10.8C589.3,10.8,583.3,9.8,575.8,9.8z"/>
</g>
</svg>
