<?xml version="1.0" encoding="utf-8"?>
<!-- Generator: Adobe Illustrator 28.3.0, SVG Export Plug-In . SVG Version: 6.00 Build 0)  -->
<svg version="1.1" id="Layer_1" xmlns="http://www.w3.org/2000/svg" xmlns:xlink="http://www.w3.org/1999/xlink" x="0px" y="0px"
	 viewBox="0 0 479.9 75.9" style="enable-background:new 0 0 479.9 75.9;" xml:space="preserve">
<style type="text/css">
	.st0{fill:#FFFFFF;}
</style>
<g>
	<path class="st0" d="M41.8,71.2l-0.2,2.3H2.6v-4.8l30.7-47H15.9c-3.7,0-6.8,0.8-8.7,1.9c-2.1,1.3-2.8,2-2.8,2.1
		c0-0.1,0.2-1.7,0.2-4.7c0-2.6-0.1-3.8-0.1-3.8h37.2v4.4L10.8,68.9h17.9c9.8,0,11.1-2.4,14-6.6C42.7,62.3,42.2,65.1,41.8,71.2z"/>
	<path class="st0" d="M72.8,74.4C56.9,74.4,48,63.1,48,46.7c0-5.3,0.2-30.2,24.9-30.2c15.9,0,24.8,11.3,24.8,27.7
		C97.7,49.5,97.6,74.4,72.8,74.4z M72.8,21.3c-8.6,0-17.3,5.8-17.3,24.5c0,18.3,8.5,23.9,17.4,23.9c8.6,0,17.3-5.8,17.3-24.5
		C90.2,26.8,81.8,21.3,72.8,21.3z"/>
	<path class="st0" d="M138.7,71.2l-0.2,2.2h-26.5c-4.3,0-6.1,0.1-6.1,0.1l0.7-1.3c1.6-3,2-3.6,2-27.3c0-23-0.3-23.3-2-26.5l-0.7-1.3
		c0,0,1.7,0.1,6,0.1h25.8c0,0-0.1,1.2-0.1,3.8c0,3,0.2,4.4,0.2,4.6c-0.1-0.1-0.6-0.8-2.8-2.1c-1.9-1.1-5-1.7-8.7-1.7h-10.9V43h9
		c3.7,0,6.8-0.4,8.7-1.5c2.1-1.2,2.7-1.9,2.8-2.1c0,0.1-0.2,2.4-0.2,5.9c0,3.4,0.2,5.6,0.2,5.8c-0.1-0.1-0.6-0.8-2.8-2.1
		c-1.9-1.1-5-1.5-8.7-1.5h-9v21.5h10.1c9.8,0,11.1-2.3,14-6.6C139.6,62.4,139.2,65.2,138.7,71.2z M115.5,12.2c-2.2,0-4-1.6-4-4.1
		c0-2.5,1.7-4.1,4.2-4.1c2.3,0,4.1,1.6,4.1,4C119.8,10.7,118,12.2,115.5,12.2z M130.1,12.2c-2.2,0-4-1.6-4-4.1
		c0-2.5,1.7-4.1,4.2-4.1c2.3,0,4.1,1.6,4.1,4C134.4,10.7,132.7,12.2,130.1,12.2z"/>
	<path class="st0" d="M209.1,73.4c-4.3,0-6.1,0.2-6.1,0.2l0.7-1.3c1.5-2.9,2-3.7,2-25.2h-27.4c0,21.6,0.3,22.1,2,25.2l0.7,1.3
		c0,0-1.7-0.2-6-0.2c-4.3,0-6.1,0.2-6.1,0.2l0.7-1.3c1.6-3,2-3.6,2-27.3c0-23-0.3-23.3-2-26.5l-0.7-1.3c0,0,1.7,0.2,6,0.2
		c4.3,0,6.1-0.2,6.1-0.2l-0.7,1.3c-1.5,2.8-2,3.6-2,23.3h27.4c0-19.5-0.4-20.3-2-23.3l-0.7-1.3c0,0,1.7,0.2,6,0.2s6.1-0.2,6.1-0.2
		l-0.7,1.3c-1.6,3-2,3.6-2,27.3c0,23,0.3,23.3,2,26.5l0.7,1.3C215.1,73.5,213.4,73.4,209.1,73.4z"/>
	<path class="st0" d="M248.2,74.4c-15.9,0-24.8-11.3-24.8-27.7c0-5.3,0.2-30.2,24.9-30.2c15.9,0,24.8,11.3,24.8,27.7
		C273.2,49.5,273,74.4,248.2,74.4z M248.2,21.3c-8.6,0-17.3,5.8-17.3,24.5c0,18.3,8.5,23.9,17.4,23.9c8.6,0,17.3-5.8,17.3-24.5
		C265.6,26.8,257.2,21.3,248.2,21.3z"/>
	<path class="st0" d="M296,50.5c-2.9,0-5.2-0.3-5.2-0.3c0,17.4,0.3,18.8,2,22l0.7,1.3c0,0-1.7-0.2-6-0.2c-4.3,0-6.1,0.2-6.1,0.2
		l0.7-1.3c1.6-2.9,2-3.6,2-27.3c0-23-0.3-23.3-2-26.5l-0.7-1.3c0,0,2,0.2,5.1,0.2c3.2,0,6.5-0.2,8.8-0.2c7.1,0,20.7,0.6,20.7,16.3
		C316,48.2,304.4,50.5,296,50.5z M295.3,21.3c-2.6,0-4.4,0.2-4.4,0.2V46c0,0,1.3,0.2,5,0.2c12.2,0,12.7-8.4,12.7-13
		C308.5,22.7,300.9,21.3,295.3,21.3z"/>
	<path class="st0" d="M351.9,29.6l-13.5,13.8l13.4,16.4c8,9.8,11.1,12.6,13.3,13.8c0,0-2.4-0.1-6.4-0.1h-5.1l-22.1-28.4
		c0,23,0.3,24,2,27.1l0.7,1.3c0,0-1.7-0.2-5.9-0.2c-4.3,0-6.1,0.2-6.1,0.2l0.7-1.3c1.6-2.9,2-3.6,2-27.3c0-23-0.3-23.3-2-26.5
		l-0.7-1.3c0,0,1.7,0.2,6,0.2c4.3,0,6-0.2,6-0.2l-0.7,1.3c-1.5,2.8-2,3.8-2,25.9l13.3-14.6c5.3-5.8,6.8-7.4,6.8-9.6
		c0-1.2-0.6-2.3-1.7-3c0,0,2.8,0.2,7,0.2c5.5,0,8.4-0.2,8.4-0.2C363.4,18.3,359.8,21.6,351.9,29.6z"/>
	<path class="st0" d="M377.3,73.4c-4.3,0-6.1,0.2-6.1,0.2l0.7-1.3c1.6-3,2-3.6,2-27.3c0-23-0.3-23.3-2-26.5l-0.7-1.3
		c0,0,1.7,0.2,6,0.2c4.3,0,6.1-0.2,6.1-0.2l-0.7,1.3c-1.6,3-2,3.6-2,27.3c0,23,0.3,23.3,2,26.5l0.7,1.3
		C383.3,73.5,381.6,73.4,377.3,73.4z"/>
	<path class="st0" d="M438.1,18.4c-1.5,2.8-1.8,3.6-1.9,27.3l-0.1,27.9c0,0-1.7-0.2-4.3-0.2c-3.1,0-4.6,0.2-4.6,0.2l-24.4-45.6
		c-1.3-2.3-2.1-5.6-2.1-5.6v23.3c0,23,0.3,23.3,2,26.5l0.7,1.3c0,0-1.8-0.2-5.5-0.2c-3.6,0-5.2,0.2-5.2,0.2l0.7-1.3
		c1.5-2.8,2-3.6,2-27.3c0-23-0.3-23.3-2-26.5l-0.7-1.3c0,0,1.6,0.2,6.2,0.2c3.7,0,5.4-0.2,5.4-0.2l24.3,45.5c1.6,3,2.2,5.6,2.2,5.6
		V44.9c0-23-0.3-23.3-2-26.5l-0.7-1.3c0,0,1.8,0.2,5.5,0.2c3.6,0,5.2-0.2,5.2-0.2L438.1,18.4z"/>
	<path class="st0" d="M460.5,74c-9,0-13.4-2.5-13.4-2.5s0.2-1.8,0.2-4.6c0-3.1-0.2-5.7-0.2-5.7c3.4,4.9,6.6,8.1,13.5,8.1
		c4.7,0,11.9-0.6,11.9-8.8c0-5.1-2.7-7.4-6.1-9.7l-7.2-4.8c-5.2-3.5-11.7-7-11.7-15.9c0-6.8,4.4-13.5,17.3-13.5
		c7.8,0,12.3,2.3,12.3,2.3s-0.2,1.8-0.2,4.8c0,3.1,0.2,5.3,0.2,5.3c-3.4-4.9-6.5-7.8-12.7-7.8c-2.7,0-10.4,0.2-10.4,8.1
		c0,4.9,3.3,7,7.8,10l5.6,3.8c6,4,11.7,7,11.7,16.4C479.1,70.1,471.6,74,460.5,74z"/>
</g>
</svg>
