<?xml version="1.0" encoding="utf-8"?>
<!-- Generator: Adobe Illustrator 28.3.0, SVG Export Plug-In . SVG Version: 6.00 Build 0)  -->
<svg version="1.1" id="Layer_1" xmlns="http://www.w3.org/2000/svg" xmlns:xlink="http://www.w3.org/1999/xlink" x="0px" y="0px"
	 viewBox="0 0 364.4 63.9" style="enable-background:new 0 0 364.4 63.9;" xml:space="preserve">
<style type="text/css">
	.st0{fill:#FFFFFF;}
</style>
<g>
	<path class="st0" d="M11,62.3c-4.3,0-6.1,0.2-6.1,0.2l0.7-1.3c1.6-3,2-3.6,2-27.3c0-23-0.3-23.3-2-26.5L4.9,6c0,0,1.7,0.2,6,0.2
		S17,6,17,6l-0.7,1.3c-1.6,3-2,3.6-2,27.3c0,23,0.3,23.3,2,26.5l0.7,1.3C17,62.5,15.3,62.3,11,62.3z"/>
	<path class="st0" d="M38.8,62.9c-9,0-13.4-2.5-13.4-2.5s0.2-1.8,0.2-4.6c0-3.1-0.2-5.7-0.2-5.7c3.4,4.9,6.6,8.1,13.5,8.1
		c4.7,0,11.9-0.6,11.9-8.8c0-5.1-2.7-7.4-6.1-9.7l-7.2-4.8c-5.2-3.5-11.7-7-11.7-15.9c0-6.8,4.4-13.5,17.3-13.5
		c7.8,0,12.3,2.3,12.3,2.3s-0.2,1.8-0.2,4.8c0,3.1,0.2,5.3,0.2,5.3C52,13,49,10.2,42.7,10.2c-2.7,0-10.4,0.2-10.4,8.1
		c0,4.9,3.3,7,7.8,10l5.6,3.8c6,4,11.7,7,11.7,16.4C57.4,59.1,49.9,62.9,38.8,62.9z"/>
	<path class="st0" d="M103.4,62.7c-5.2,0-7-2.6-10.8-8.2l-5.9-9c-5.1-7.8-6.1-9.3-10.5-9.3c-0.8,0-1.4,0.1-1.4,0.1
		c0,20.2,0.3,21.7,2,24.9l0.7,1.3c0,0-1.7-0.2-5.9-0.2c-4.3,0-6.1,0.2-6.1,0.2l0.7-1.3c1.6-2.9,2-3.6,2-27.3c0-23-0.3-23.3-2-26.5
		L65.4,6c0,0,2.1,0.2,5.2,0.2c2.3,0,5.8-0.2,8.6-0.2c8.6,0,20.5,0.7,20.5,14.2c0,5.5-2.5,15.1-17.6,14.9c6.9,0.9,9.3,4.7,13.6,11.5
		l3.6,5.9c2.9,4.7,5.1,8.3,8.5,9.7C107.8,62.1,106.7,62.7,103.4,62.7z M78.9,10.3c-2.1,0-4.1,0.2-4.1,0.2v21.4c0,0,1.7,0.2,4.8,0.2
		c0.9,0,3.5-0.2,4.8-0.3c4.3-0.6,7.9-4.1,7.9-10.8C92.3,11.2,86.3,10.3,78.9,10.3z"/>
	<path class="st0" d="M152.8,62.3c-4.1,0-7,0.2-7,0.2c1-0.7,2.5-2.1,2.5-5c0-2.8-1.5-7.8-3.2-13.6l-1.6-5.3h-17.9l-1.6,5.3
		c-1.7,5.9-3.2,10.8-3.2,13.6c0,2.9,1.5,4.3,2.5,5c0,0-2.5-0.2-6.6-0.2c-4.3,0-6.4,0.2-6.4,0.2c2.9-2.8,4.4-7.8,7.9-18.7l10.5-33
		c0.3-0.9,0.6-1.9,0.6-2.9s-0.4-1.5-0.6-1.7h13.4c0,0.1-0.5,0.6-0.5,1.7c0,1,0.2,2,0.6,2.9l9.8,33c3.2,11,4.7,15.9,7.6,18.7
		C159.8,62.5,157.2,62.3,152.8,62.3z M136.5,14.5c-0.9-2.9-1.7-5.9-1.7-5.9l-7.7,25.2h15.1L136.5,14.5z"/>
	<path class="st0" d="M222.3,62.7c-5.2,0-7-2.6-10.8-8.2l-5.9-9c-5.1-7.8-6.1-9.3-10.5-9.3c-0.8,0-1.4,0.1-1.4,0.1
		c0,20.2,0.3,21.7,2,24.9l0.7,1.3c0,0-1.7-0.2-5.9-0.2s-6.1,0.2-6.1,0.2l0.7-1.3c1.6-2.9,2-3.6,2-27.3c0-23-0.3-23.3-2-26.5L184.4,6
		c0,0,2.1,0.2,5.2,0.2c2.3,0,5.8-0.2,8.6-0.2c8.6,0,20.5,0.7,20.5,14.2c0,5.5-2.5,15.1-17.6,14.9c6.9,0.9,9.3,4.7,13.6,11.5l3.6,5.9
		c2.9,4.7,5.1,8.3,8.5,9.7C226.8,62.1,225.7,62.7,222.3,62.7z M197.8,10.3c-2.1,0-4.1,0.2-4.1,0.2v21.4c0,0,1.7,0.2,4.8,0.2
		c0.9,0,3.5-0.2,4.8-0.3c4.3-0.6,7.9-4.1,7.9-10.8C211.3,11.2,205.3,10.3,197.8,10.3z"/>
	<path class="st0" d="M265.3,60.2l-0.2,2.2h-26.5c-4.3,0-6.1,0.1-6.1,0.1l0.7-1.3c1.6-3,2-3.6,2-27.3c0-23-0.3-23.3-2-26.5L232.5,6
		c0,0,1.7,0.1,6,0.1h25.8c0,0-0.1,1.2-0.1,3.8c0,3,0.2,4.4,0.2,4.6c-0.1-0.1-0.6-0.8-2.8-2.1c-1.9-1.1-5-1.7-8.7-1.7H242v21.4h9
		c3.7,0,6.8-0.4,8.7-1.5c2.1-1.2,2.7-1.9,2.8-2.1c0,0.1-0.2,2.4-0.2,5.9c0,3.4,0.2,5.6,0.2,5.8c-0.1-0.1-0.6-0.8-2.8-2.1
		c-1.9-1.1-5-1.5-8.7-1.5h-9v21.5h10.1c9.8,0,11.1-2.3,14-6.6C266.2,51.3,265.8,54.1,265.3,60.2z"/>
	<path class="st0" d="M319.5,7.3c-1.5,2.8-1.8,3.6-1.9,27.3l-0.1,27.9c0,0-1.7-0.2-4.3-0.2c-3.1,0-4.6,0.2-4.6,0.2L284.3,17
		c-1.3-2.3-2.1-5.6-2.1-5.6v23.3c0,23,0.3,23.3,2,26.5l0.7,1.3c0,0-1.8-0.2-5.5-0.2s-5.2,0.2-5.2,0.2l0.7-1.3c1.5-2.8,2-3.6,2-27.3
		c0-23-0.3-23.3-2-26.5L274.1,6c0,0,1.6,0.2,6.2,0.2c3.7,0,5.4-0.2,5.4-0.2L310,51.5c1.6,3,2.2,5.6,2.2,5.6V33.8
		c0-23-0.3-23.3-2-26.5L309.5,6c0,0,1.8,0.2,5.5,0.2c3.6,0,5.2-0.2,5.2-0.2L319.5,7.3z"/>
	<path class="st0" d="M362.1,60.2l-0.2,2.2h-26.5c-4.3,0-6.1,0.1-6.1,0.1l0.7-1.3c1.6-3,2-3.6,2-27.3c0-23-0.3-23.3-2-26.5L329.3,6
		c0,0,1.7,0.1,6,0.1h25.8c0,0-0.1,1.2-0.1,3.8c0,3,0.2,4.4,0.2,4.6c-0.1-0.1-0.6-0.8-2.8-2.1c-1.9-1.1-5-1.7-8.7-1.7h-10.9v21.4h9
		c3.7,0,6.8-0.4,8.7-1.5c2.1-1.2,2.7-1.9,2.8-2.1c0,0.1-0.2,2.4-0.2,5.9c0,3.4,0.2,5.6,0.2,5.8c-0.1-0.1-0.6-0.8-2.8-2.1
		c-1.9-1.1-5-1.5-8.7-1.5h-9v21.5H349c9.8,0,11.1-2.3,14-6.6C363,51.3,362.6,54.1,362.1,60.2z"/>
</g>
</svg>
