<?xml version="1.0" encoding="utf-8"?>
<!-- Generator: Adobe Illustrator 28.0.0, SVG Export Plug-In . SVG Version: 6.00 Build 0)  -->
<svg version="1.1" id="Layer_1" xmlns="http://www.w3.org/2000/svg" xmlns:xlink="http://www.w3.org/1999/xlink" x="0px" y="0px"
	 viewBox="0 0 412.4 123.3" style="enable-background:new 0 0 412.4 123.3;" xml:space="preserve">
<style type="text/css">
	.st0{fill:#FFFFFF;}
</style>
<g>
	<path class="st0" d="M13,98.3c-6.1,0-8.6,0.2-8.6,0.2l0.9-1.8c2.1-3.7,2.6-6,2.6-26.5V67c0-18-0.9-20.9-2.6-23.9l-0.9-1.8l14.5-2.6
		c0,0-0.9,5.8-0.9,28.2v3.3c0,19.3,0.4,22.4,2.6,26.5l0.9,1.8C21.4,98.6,19.1,98.3,13,98.3z M12.8,30.5c-4,0-6.9-2.1-6.9-6.1
		c0-4.5,2.7-6.6,7-6.6c4,0,6.9,2.1,6.9,6.2C19.7,28.4,16.9,30.5,12.8,30.5z"/>
	<path class="st0" d="M46.7,99c-9.8,0-15.5-3.1-15.5-3.1s0.2-2,0.2-6.1c0-4-0.2-7-0.2-7c4,5.9,7.6,10,15.4,10c9,0,10.9-4.5,10.9-8.7
		c0-4.4-2.3-6.7-6.2-9L42,69.5c-4.1-2.3-10.4-5.6-10.4-15.4c0-11.1,7.8-15.7,19.1-15.7c9.7,0,14.8,3.2,14.8,3.2s-0.2,2-0.2,6.1
		c0,4,0.2,6.8,0.2,6.8c-3.9-5.7-7.6-10-14.6-10c-3.2,0-10,0.4-10,7.6c0,4.7,2.9,6.8,8.2,9.8l7.2,4.1c6.5,3.7,10.9,8,10.9,16
		C67.2,89.6,63,99,46.7,99z"/>
	<path class="st0" d="M100.7,46.7c-9.1,0-10.4,6.6-10.4,6.6v17c0,22.7,0.9,23.5,2.6,26.5l1,1.8c0,0-2.4-0.2-8.5-0.2
		c-6.1,0-8.6,0.2-8.6,0.2l0.9-1.8c1.7-3,2.6-3.9,2.6-26.5V67c0-18-0.9-20.9-2.6-23.9l-0.9-1.8l13.4-2.6l-0.4,13.8
		c2.7-12.9,11.6-14.3,14.5-14.3c5.4,0,7.2,1.9,7.2,1.9s-0.2,2.5-0.2,6.6c0,5.1,0.2,7,0.2,7C108.7,49.3,105.8,46.7,100.7,46.7z"/>
	<path class="st0" d="M149.3,99.3l0.4-12.3c-2.6,11.2-11.1,12.7-17.1,12.7c-14.8,0-18.2-9.9-18.2-17.1c0-17.6,14.9-18.5,24.4-18.5
		c5.9,0,10.3,0.5,10.3,0.5v-4.9c0-4.2,0-8.1-2-10.8c-1.7-2.3-5-4-10.7-4c-2.9,0-11.2,0.1-15.9,7.7c0,0,0.2-2.4,0.2-5.8
		c0-3.5-0.2-5.6-0.2-5.6s5.2-2.9,17.7-2.9c10.8,0,15.4,3,17.7,6c3.2,4.1,3.2,9.4,3.2,15.9c0,2.2-0.2,9-0.2,19.9
		c0,7.6,0.6,11.3,2.5,14.8l0.9,1.8L149.3,99.3z M149,70.9c0,0-2.4-0.5-8.6-0.5c-5.8,0-15.5,0.4-15.5,11.2c0,7.7,4.9,11,11.2,11
		c10.6,0,12.9-6.5,12.9-6.5V70.9z"/>
	<path class="st0" d="M223.4,46.7c-9.1,0-10.4,6.6-10.4,6.6v17c0,22.7,0.9,23.5,2.6,26.5l1,1.8c0,0-2.4-0.2-8.5-0.2
		c-6.1,0-8.6,0.2-8.6,0.2l0.9-1.8c1.7-3,2.6-3.9,2.6-26.5V67c0-18-0.9-20.9-2.6-23.9l-0.9-1.8l13.4-2.6l-0.4,13.8
		c2.7-12.9,11.6-14.3,14.5-14.3c5.4,0,7.2,1.9,7.2,1.9s-0.2,2.5-0.2,6.6c0,5.1,0.2,7,0.2,7C231.4,49.3,228.5,46.7,223.4,46.7z"/>
	<path class="st0" d="M249.9,69c0,11,3.6,23.3,18.2,23.3c14.4,0,18.2-7.4,18.2-7.4c0,7.5-5.9,14.7-20.6,14.7
		c-17,0-26.5-11-26.5-30.2c0-22.2,12.2-31.1,25.8-31.1c21.4,0,23.7,18,23.7,29.7v1H249.9z M264.7,44.5c-6.1,0-14.5,2.2-14.7,19.4
		l27.8-2.1C277.8,56.2,277,44.5,264.7,44.5z"/>
	<path class="st0" d="M341.5,98.3c-6.1,0-8.4,0.2-8.4,0.2l0.9-1.8c1.7-3,2.6-3.7,2.6-26.4c0-11.3-0.3-16.9-2.3-20
		c-1.5-2.4-4.1-4.8-10.1-4.8c-11.5,0-13.1,6.9-13.1,6.9v17.8c0,22.7,0.9,23.5,2.6,26.5l0.9,1.8c0,0-2.3-0.2-8.4-0.2
		c-6.1,0-8.6,0.2-8.6,0.2l0.9-1.8c1.7-3,2.6-3.9,2.6-26.5V67c0-18-0.9-20.9-2.6-23.9l-0.9-1.8l13.5-2.6l-0.4,13
		c2.4-11.2,10.7-13.4,17.3-13.4c7.9,0,13.1,2.8,15.8,7.7c2.3,4.4,2.8,9.4,2.8,21.6v2.7c0,22.7,0.9,23.5,2.6,26.5l0.9,1.8
		C350.2,98.6,347.7,98.3,341.5,98.3z"/>
	<path class="st0" d="M369.1,69c0,11,3.6,23.3,18.2,23.3c14.4,0,18.2-7.4,18.2-7.4c0,7.5-5.9,14.7-20.6,14.7
		c-17,0-26.5-11-26.5-30.2c0-22.2,12.2-31.1,25.8-31.1c21.4,0,23.7,18,23.7,29.7v1H369.1z M383.9,44.5c-6.1,0-14.5,2.2-14.7,19.4
		l27.8-2.1C397,56.2,396.1,44.5,383.9,44.5z"/>
</g>
</svg>
